<?xml version="1.0" encoding="UTF-8"?>
<!DOCTYPE svg PUBLIC "-//W3C//DTD SVG 1.1//EN" "http://www.w3.org/Graphics/SVG/1.1/DTD/svg11.dtd">
<svg xmlns="http://www.w3.org/2000/svg" version="1.1" width="954px" height="562px" style="shape-rendering:geometricPrecision; text-rendering:geometricPrecision; image-rendering:optimizeQuality; fill-rule:evenodd; clip-rule:evenodd" xmlns:xlink="http://www.w3.org/1999/xlink">
<g><path style="opacity:1" fill="#786693" d="M 533.5,135.5 C 529.951,124.636 528.285,124.969 528.5,136.5C 522.481,119.172 516.481,119.172 510.5,136.5C 510.232,133.881 510.565,131.381 511.5,129C 510.627,127.955 509.627,127.122 508.5,126.5C 510.796,119.016 515.796,116.183 523.5,118C 529.994,122.001 533.327,127.834 533.5,135.5 Z"/></g>
<g><path style="opacity:0.984" fill="#776692" d="M 494.5,129.5 C 492.922,130.066 491.588,131.066 490.5,132.5C 491.167,132.833 491.833,133.167 492.5,133.5C 491.691,135.071 491.357,136.738 491.5,138.5C 490.32,134.496 488.82,130.496 487,126.5C 483.303,122.418 479.97,122.751 477,127.5C 475.132,130.605 473.965,133.938 473.5,137.5C 473.167,137.5 472.833,137.5 472.5,137.5C 472.511,135.453 472.844,133.453 473.5,131.5C 473.444,130.263 472.944,129.263 472,128.5C 470.085,133.585 469.085,138.919 469,144.5C 466.568,145.45 464.068,145.45 461.5,144.5C 460.508,144.672 459.842,144.338 459.5,143.5C 461.764,142.781 464.097,142.448 466.5,142.5C 466.779,139.882 467.446,137.382 468.5,135C 468.597,128.489 471.597,122.822 477.5,118C 487.069,116.07 492.736,119.903 494.5,129.5 Z"/></g>
<g><path style="opacity:0.993" fill="#7a6996" d="M 459.5,143.5 C 459.842,144.338 460.508,144.672 461.5,144.5C 461.414,145.496 461.748,146.329 462.5,147C 461.584,147.278 460.918,147.778 460.5,148.5C 458.952,148.821 458.285,149.821 458.5,151.5C 458.59,154.152 457.924,156.485 456.5,158.5C 455.498,155.89 455.665,153.224 457,150.5C 457.867,146.044 457.534,141.711 456,137.5C 455.59,138.901 455.09,140.234 454.5,141.5C 453.895,136.193 452.062,130.86 449,125.5C 446.627,123.15 444.127,122.983 441.5,125C 439.919,128.011 438.253,130.844 436.5,133.5C 436.766,131.653 436.432,130.986 435.5,131.5C 434.787,133.776 434.287,136.109 434,138.5C 433.667,137.167 433.333,135.833 433,134.5C 431.595,137.619 431.095,140.952 431.5,144.5C 428.167,144.5 424.833,144.5 421.5,144.5C 421.5,142.5 421.5,140.5 421.5,138.5C 422.451,139.919 422.784,141.585 422.5,143.5C 425.011,143.162 427.345,143.162 429.5,143.5C 430.24,140.164 430.906,136.83 431.5,133.5C 431.566,127.553 434.233,122.72 439.5,119C 445.897,116.109 451.064,117.609 455,123.5C 458.805,129.936 460.305,136.603 459.5,143.5 Z M 454.5,141.5 C 454.5,141.833 454.5,142.167 454.5,142.5C 448.234,142.287 441.901,142.62 435.5,143.5C 435.5,143.167 435.5,142.833 435.5,142.5C 436.21,140.107 436.877,137.607 437.5,135C 437.272,134.601 436.938,134.435 436.5,134.5C 436.5,134.167 436.5,133.833 436.5,133.5C 438.253,130.844 439.919,128.011 441.5,125C 444.127,122.983 446.627,123.15 449,125.5C 452.062,130.86 453.895,136.193 454.5,141.5 Z"/></g>
<g><path style="opacity:0.541" fill="#3e2c4e" d="M 395.5,128.5 C 395.244,131.598 394.578,134.598 393.5,137.5C 392.903,137.265 392.57,136.765 392.5,136C 393.233,133.28 394.233,130.78 395.5,128.5 Z"/></g>
<g><path style="opacity:0.482" fill="#33243e" d="M 436.5,134.5 C 436.938,134.435 437.272,134.601 437.5,135C 436.877,137.607 436.21,140.107 435.5,142.5C 435.194,139.615 435.527,136.948 436.5,134.5 Z"/></g>
<g><path style="opacity:0.999" fill="#806e9e" d="M 418.5,126.5 C 416.179,128.09 415.179,130.423 415.5,133.5C 410.912,120.717 405.746,120.384 400,132.5C 398.726,136.294 398.226,139.961 398.5,143.5C 397.001,142.322 396.001,140.655 395.5,138.5C 395.167,138.667 394.833,138.833 394.5,139C 395.711,140.113 395.711,141.28 394.5,142.5C 395.526,144.831 396.86,146.831 398.5,148.5C 393.134,148.042 387.967,148.709 383,150.5C 382.493,149.004 382.993,147.837 384.5,147C 387.158,145.522 389.825,144.355 392.5,143.5C 392.325,141.379 392.659,139.379 393.5,137.5C 394.578,134.598 395.244,131.598 395.5,128.5C 398.388,119.224 404.388,116.057 413.5,119C 415.808,121.128 417.474,123.628 418.5,126.5 Z"/></g>
<g><path style="opacity:0.475" fill="#48395c" d="M 416.5,137.5 C 417.468,139.607 417.802,141.941 417.5,144.5C 410.978,144.823 404.645,144.49 398.5,143.5C 404.168,143.31 409.834,143.31 415.5,143.5C 416.466,141.604 416.799,139.604 416.5,137.5 Z"/></g>
<g><path style="opacity:0.991" fill="#8a78a9" d="M 418.5,126.5 C 420.728,130.076 421.728,134.076 421.5,138.5C 421.5,140.5 421.5,142.5 421.5,144.5C 424.833,144.5 428.167,144.5 431.5,144.5C 431.095,140.952 431.595,137.619 433,134.5C 433.333,135.833 433.667,137.167 434,138.5C 434.287,136.109 434.787,133.776 435.5,131.5C 436.432,130.986 436.766,131.653 436.5,133.5C 436.5,133.833 436.5,134.167 436.5,134.5C 435.527,136.948 435.194,139.615 435.5,142.5C 435.5,142.833 435.5,143.167 435.5,143.5C 438.482,144.165 441.648,144.498 445,144.5C 448.576,144.485 451.742,143.818 454.5,142.5C 454.5,142.167 454.5,141.833 454.5,141.5C 455.09,140.234 455.59,138.901 456,137.5C 457.534,141.711 457.867,146.044 457,150.5C 455.665,153.224 455.498,155.89 456.5,158.5C 455.504,158.586 454.671,158.252 454,157.5C 453.505,155.527 453.338,153.527 453.5,151.5C 453.5,151.167 453.5,150.833 453.5,150.5C 454.043,150.44 454.376,150.107 454.5,149.5C 443.34,148.176 432.34,148.176 421.5,149.5C 421.322,154.047 419.989,158.214 417.5,162C 419.699,167.096 418.365,171.429 413.5,175C 404.219,178.529 398.553,175.529 396.5,166C 398.347,155.416 404.014,152.25 413.5,156.5C 414.425,155.643 415.092,154.643 415.5,153.5C 416.451,152.081 416.784,150.415 416.5,148.5C 410.5,148.5 404.5,148.5 398.5,148.5C 396.86,146.831 395.526,144.831 394.5,142.5C 395.711,141.28 395.711,140.113 394.5,139C 394.833,138.833 395.167,138.667 395.5,138.5C 396.001,140.655 397.001,142.322 398.5,143.5C 404.645,144.49 410.978,144.823 417.5,144.5C 417.802,141.941 417.468,139.607 416.5,137.5C 416.167,136.167 415.833,134.833 415.5,133.5C 415.179,130.423 416.179,128.09 418.5,126.5 Z M 405.5,160.5 C 407.288,160.215 408.955,160.548 410.5,161.5C 402.44,164.904 402.773,167.404 411.5,169C 407.172,172.345 404.172,171.345 402.5,166C 402.863,163.808 403.863,161.974 405.5,160.5 Z"/></g>
<g><path style="opacity:0.493" fill="#3a2f4f" d="M 454.5,142.5 C 451.742,143.818 448.576,144.485 445,144.5C 441.648,144.498 438.482,144.165 435.5,143.5C 441.901,142.62 448.234,142.287 454.5,142.5 Z"/></g>
<g><path style="opacity:0.991" fill="#8d7bad" d="M 508.5,126.5 C 509.627,127.122 510.627,127.955 511.5,129C 510.565,131.381 510.232,133.881 510.5,136.5C 510.5,136.833 510.5,137.167 510.5,137.5C 509.203,139.693 509.203,142.027 510.5,144.5C 516.115,145.289 521.782,145.789 527.5,146C 506.167,146.667 506.167,147.333 527.5,148C 516.992,148.17 506.659,148.67 496.5,149.5C 496.634,151.292 496.301,152.958 495.5,154.5C 494.221,155.968 492.554,156.635 490.5,156.5C 490.5,155.5 490.5,154.5 490.5,153.5C 490.5,152.833 490.5,152.167 490.5,151.5C 491.404,150.791 491.737,149.791 491.5,148.5C 481.167,148.5 470.833,148.5 460.5,148.5C 460.918,147.778 461.584,147.278 462.5,147C 461.748,146.329 461.414,145.496 461.5,144.5C 464.068,145.45 466.568,145.45 469,144.5C 469.085,138.919 470.085,133.585 472,128.5C 472.944,129.263 473.444,130.263 473.5,131.5C 472.844,133.453 472.511,135.453 472.5,137.5C 472.5,139.833 472.5,142.167 472.5,144.5C 479.022,144.823 485.355,144.49 491.5,143.5C 490.438,141.901 490.438,140.234 491.5,138.5C 491.357,136.738 491.691,135.071 492.5,133.5C 491.833,133.167 491.167,132.833 490.5,132.5C 491.588,131.066 492.922,130.066 494.5,129.5C 496.67,133.314 497.337,137.314 496.5,141.5C 496.5,142.5 496.5,143.5 496.5,144.5C 499.5,144.5 502.5,144.5 505.5,144.5C 505.5,142.5 505.5,140.5 505.5,138.5C 504.819,134.187 505.819,130.187 508.5,126.5 Z"/></g>
<g><path style="opacity:0.496" fill="#372950" d="M 505.5,138.5 C 505.5,140.5 505.5,142.5 505.5,144.5C 502.5,144.5 499.5,144.5 496.5,144.5C 496.5,143.5 496.5,142.5 496.5,141.5C 497.222,141.918 497.722,142.584 498,143.5C 500,142.167 502,142.167 504,143.5C 504.198,141.618 504.698,139.952 505.5,138.5 Z"/></g>
<g><path style="opacity:0.477" fill="#3d3051" d="M 472.5,137.5 C 472.833,137.5 473.167,137.5 473.5,137.5C 473.201,139.604 473.534,141.604 474.5,143.5C 480.06,142.61 485.727,142.61 491.5,143.5C 485.355,144.49 479.022,144.823 472.5,144.5C 472.5,142.167 472.5,139.833 472.5,137.5 Z"/></g>
<g><path style="opacity:0.469" fill="#52416b" d="M 421.5,149.5 C 432.34,148.176 443.34,148.176 454.5,149.5C 454.376,150.107 454.043,150.44 453.5,150.5C 443.013,149.506 432.346,149.172 421.5,149.5 Z"/></g>
<g><path style="opacity:0.459" fill="#504069" d="M 460.5,148.5 C 470.833,148.5 481.167,148.5 491.5,148.5C 491.737,149.791 491.404,150.791 490.5,151.5C 485.712,150.172 480.546,149.505 475,149.5C 469.256,149.549 463.756,150.216 458.5,151.5C 458.285,149.821 458.952,148.821 460.5,148.5 Z"/></g>
<g><path style="opacity:0.983" fill="#6e5c88" d="M 392.5,143.5 C 389.825,144.355 387.158,145.522 384.5,147C 382.993,147.837 382.493,149.004 383,150.5C 387.967,148.709 393.134,148.042 398.5,148.5C 404.5,148.5 410.5,148.5 416.5,148.5C 416.784,150.415 416.451,152.081 415.5,153.5C 415.5,152.167 415.5,150.833 415.5,149.5C 406.827,149.334 398.16,149.5 389.5,150C 382.72,151.954 378.053,156.12 375.5,162.5C 372.938,157.294 374.438,153.96 380,152.5C 380.765,150.934 380.598,149.601 379.5,148.5C 383.065,145.085 387.398,143.419 392.5,143.5 Z"/></g>
<g><path style="opacity:0.631" fill="#3e3255" d="M 379.5,148.5 C 377.833,150.833 375.833,152.833 373.5,154.5C 374.5,151.5 376.5,149.5 379.5,148.5 Z"/></g>
<g><path style="opacity:0.439" fill="#362445" d="M 441.5,155.5 C 439.525,157.137 437.525,158.804 435.5,160.5C 436.549,157.068 438.549,155.402 441.5,155.5 Z"/></g>
<g><path style="opacity:1" fill="#816f9f" d="M 533.5,135.5 C 534.092,138.127 534.425,140.794 534.5,143.5C 547.615,144.617 555.281,151.617 557.5,164.5C 556.262,162.786 555.595,160.786 555.5,158.5C 554.448,158.351 553.448,158.517 552.5,159C 553.333,161.081 553.333,163.248 552.5,165.5C 549.881,155.889 543.547,150.556 533.5,149.5C 533.126,153.96 532.126,158.294 530.5,162.5C 531.343,169.472 528.51,174.472 522,177.5C 509.752,175.95 506.085,169.616 511,158.5C 512.378,156.787 514.045,155.453 516,154.5C 519.078,154.553 522.245,155.219 525.5,156.5C 526.873,154.51 527.873,152.343 528.5,150C 517.839,149.5 507.172,149.333 496.5,149.5C 506.659,148.67 516.992,148.17 527.5,148C 506.167,147.333 506.167,146.667 527.5,146C 521.782,145.789 516.115,145.289 510.5,144.5C 509.203,142.027 509.203,139.693 510.5,137.5C 510.629,139.216 510.962,140.883 511.5,142.5C 510.167,142.833 510.167,143.167 511.5,143.5C 517.441,144.413 523.441,144.746 529.5,144.5C 529.802,141.941 529.468,139.607 528.5,137.5C 528.5,137.167 528.5,136.833 528.5,136.5C 528.285,124.969 529.951,124.636 533.5,135.5 Z M 523.5,168.5 C 520.895,172.285 518.062,172.285 515,168.5C 514.011,163.16 516.178,160.66 521.5,161C 521.833,161.333 522.167,161.667 522.5,162C 518.318,161.997 516.651,163.83 517.5,167.5C 519.396,168.466 521.396,168.799 523.5,168.5 Z"/></g>
<g><path style="opacity:0.482" fill="#372b4c" d="M 528.5,137.5 C 529.468,139.607 529.802,141.941 529.5,144.5C 523.441,144.746 517.441,144.413 511.5,143.5C 511.5,143.167 511.5,142.833 511.5,142.5C 516.853,143.15 522.186,143.483 527.5,143.5C 528.466,141.604 528.799,139.604 528.5,137.5 Z"/></g>
<g><path style="opacity:1" fill="#7f6d9c" d="M 614.5,192.5 C 614.36,190.876 615.027,189.71 616.5,189C 615.255,188.209 613.922,187.709 612.5,187.5C 614.485,183.544 616.985,179.878 620,176.5C 620.667,174.833 620.667,173.167 620,171.5C 613.57,165.742 606.57,160.742 599,156.5C 597.605,156.78 596.438,157.447 595.5,158.5C 592.858,162.309 590.025,165.976 587,169.5C 586.421,170.928 586.588,172.262 587.5,173.5C 586.883,173.611 586.383,173.944 586,174.5C 585.252,172.668 584.252,171.001 583,169.5C 581.615,172.386 579.449,174.386 576.5,175.5C 581.536,167.283 587.202,159.45 593.5,152C 596.442,150.876 599.442,150.542 602.5,151C 608.833,155.333 615.167,159.667 621.5,164C 626.188,168.392 627.355,173.559 625,179.5C 621.96,184.269 618.46,188.603 614.5,192.5 Z"/></g>
<g><path style="opacity:1" fill="#8371a0" d="M 453.5,151.5 C 453.338,153.527 453.505,155.527 454,157.5C 454.671,158.252 455.504,158.586 456.5,158.5C 455.458,162.237 455.458,165.737 456.5,169C 452.999,175.497 447.666,177.83 440.5,176C 438.34,175.004 436.673,173.504 435.5,171.5C 434.841,168.545 434.508,165.545 434.5,162.5C 434.328,161.508 434.662,160.842 435.5,160.5C 437.525,158.804 439.525,157.137 441.5,155.5C 444.763,154.41 447.93,154.743 451,156.5C 450.973,154.677 451.807,153.01 453.5,151.5 Z M 442.5,160.5 C 444.288,160.215 445.955,160.548 447.5,161.5C 443.792,161.408 442.292,163.408 443,167.5C 445.333,168.32 447.5,168.653 449.5,168.5C 448.451,170.112 446.951,171.112 445,171.5C 439.11,168.807 438.277,165.14 442.5,160.5 Z"/></g>
<g><path style="opacity:0.694" fill="#392e44" d="M 472.5,161.5 C 472.483,163.565 472.15,165.565 471.5,167.5C 470.206,165.32 470.539,163.32 472.5,161.5 Z"/></g>
<g><path style="opacity:0.247" fill="#211934" d="M 434.5,162.5 C 434.508,165.545 434.841,168.545 435.5,171.5C 434.06,170.054 433.393,168.221 433.5,166C 433.514,164.615 433.848,163.449 434.5,162.5 Z"/></g>
<g><path style="opacity:0.976" fill="#816f9e" d="M 490.5,153.5 C 490.5,154.5 490.5,155.5 490.5,156.5C 492.554,156.635 494.221,155.968 495.5,154.5C 495.193,157.28 494.193,159.78 492.5,162C 494.539,169.67 491.705,174.836 484,177.5C 479.672,177.28 476.006,175.613 473,172.5C 472.392,170.846 471.892,169.179 471.5,167.5C 472.15,165.565 472.483,163.565 472.5,161.5C 472.709,160.078 473.209,158.745 474,157.5C 475.892,156.87 477.559,155.87 479,154.5C 481.26,154.673 483.593,154.673 486,154.5C 488.093,157.138 489.593,156.804 490.5,153.5 Z M 485.5,167.5 C 486.774,168.189 486.774,169.023 485.5,170C 484.241,170.982 482.908,171.315 481.5,171C 482.731,169.595 484.064,168.429 485.5,167.5 Z M 480.5,160.5 C 481.978,160.238 483.311,160.571 484.5,161.5C 482.496,161.771 480.829,163.104 479.5,165.5C 479.529,167.029 480.196,168.196 481.5,169C 481,169.5 480.5,170 480,170.5C 475.315,166.887 475.481,163.553 480.5,160.5 Z"/></g>
<g><path style="opacity:0.016" fill="#340d3c" d="M 557.5,167.5 C 558.167,177.833 558.833,188.167 559.5,198.5C 559.5,198.833 559.5,199.167 559.5,199.5C 558.883,199.611 558.383,199.944 558,200.5C 557.5,189.505 557.333,178.505 557.5,167.5 Z"/></g>
<g><path style="opacity:0.794" fill="#4a3f5f" d="M 552.5,166.5 C 553.811,172 553.811,177.5 552.5,183C 494.834,183.5 437.168,183.667 379.5,183.5C 377.219,183.923 375.552,183.256 374.5,181.5C 433.138,181.311 491.971,181.644 551,182.5C 551.986,177.095 552.486,171.762 552.5,166.5 Z"/></g>
<g><path style="opacity:1" fill="#8d7bad" d="M 557.5,164.5 C 557.5,165.5 557.5,166.5 557.5,167.5C 557.333,178.505 557.5,189.505 558,200.5C 558.383,199.944 558.883,199.611 559.5,199.5C 560.461,201.265 560.795,203.265 560.5,205.5C 553.88,215.452 546.88,225.118 539.5,234.5C 538.448,234.649 537.448,234.483 536.5,234C 537.406,232.301 537.739,230.467 537.5,228.5C 538.149,214.459 537.482,200.792 535.5,187.5C 487.5,187.5 439.5,187.5 391.5,187.5C 389.824,188.183 389.157,189.517 389.5,191.5C 388.5,191.5 387.5,191.5 386.5,191.5C 386.5,241.5 386.5,291.5 386.5,341.5C 386.167,341.5 385.833,341.5 385.5,341.5C 385.5,341.167 385.5,340.833 385.5,340.5C 385.5,289.5 385.5,238.5 385.5,187.5C 384.5,187.5 383.5,187.5 382.5,187.5C 381.167,187.5 379.833,187.5 378.5,187.5C 377.529,186.038 377.862,184.705 379.5,183.5C 437.168,183.667 494.834,183.5 552.5,183C 553.811,177.5 553.811,172 552.5,166.5C 552.5,166.167 552.5,165.833 552.5,165.5C 553.333,163.248 553.333,161.081 552.5,159C 553.448,158.517 554.448,158.351 555.5,158.5C 555.595,160.786 556.262,162.786 557.5,164.5 Z M 543.5,187.5 C 546.187,187.336 548.854,187.503 551.5,188C 552.108,189.231 552.441,190.564 552.5,192C 551.268,197.411 551.268,202.578 552.5,207.5C 549.966,211.926 546.966,215.926 543.5,219.5C 542.167,208.833 542.167,198.167 543.5,187.5 Z"/></g>
<g><path style="opacity:1" fill="#907db2" d="M 389.5,191.5 C 389.833,243.171 389.5,294.838 388.5,346.5C 387.678,344.861 387.011,343.195 386.5,341.5C 386.5,291.5 386.5,241.5 386.5,191.5C 387.5,191.5 388.5,191.5 389.5,191.5 Z"/></g>
<g><path style="opacity:0.942" fill="#8978a4" d="M 379.5,148.5 C 380.598,149.601 380.765,150.934 380,152.5C 374.438,153.96 372.938,157.294 375.5,162.5C 374.914,168.609 374.581,174.942 374.5,181.5C 375.552,183.256 377.219,183.923 379.5,183.5C 377.862,184.705 377.529,186.038 378.5,187.5C 375.266,187.237 373.932,188.737 374.5,192C 374.887,244.704 374.887,297.537 374.5,350.5C 374.444,353.517 374.11,353.85 373.5,351.5C 374.151,326.438 373.485,301.605 371.5,277C 372.798,272.923 373.464,268.589 373.5,264C 373.464,259.411 372.798,255.077 371.5,251C 372,250.5 372.5,250 373,249.5C 373.178,228.124 373.678,206.79 374.5,185.5C 373.872,177 372.872,168.667 371.5,160.5C 371.5,159.5 371.5,158.5 371.5,157.5C 371.427,155.973 372.094,154.973 373.5,154.5C 375.833,152.833 377.833,150.833 379.5,148.5 Z"/></g>
<g><path style="opacity:0.67" fill="#433756" d="M 535.5,187.5 C 537.482,200.792 538.149,214.459 537.5,228.5C 536.833,228.5 536.5,228.833 536.5,229.5C 535.67,215.347 535.337,201.347 535.5,187.5 Z"/></g>
<g><path style="opacity:0.996" fill="#8471a2" d="M 587.5,173.5 C 589.781,175.887 592.115,178.387 594.5,181C 593.619,181.708 592.953,182.542 592.5,183.5C 591.603,182.402 590.77,182.402 590,183.5C 581.637,195.349 573.137,207.015 564.5,218.5C 563.325,218.719 562.325,218.386 561.5,217.5C 562.372,215.55 563.039,213.55 563.5,211.5C 570.823,200.862 578.157,190.196 585.5,179.5C 584.655,177.238 583.322,176.571 581.5,177.5C 574.966,187.259 567.966,196.593 560.5,205.5C 560.795,203.265 560.461,201.265 559.5,199.5C 559.5,199.167 559.5,198.833 559.5,198.5C 564.813,190.528 570.479,182.861 576.5,175.5C 579.449,174.386 581.615,172.386 583,169.5C 584.252,171.001 585.252,172.668 586,174.5C 586.383,173.944 586.883,173.611 587.5,173.5 Z"/></g>
<g><path style="opacity:0.178" fill="#352548" d="M 543.5,187.5 C 542.167,198.167 542.167,208.833 543.5,219.5C 542.167,219.833 542.167,220.167 543.5,220.5C 543.217,221.289 542.717,221.956 542,222.5C 541.833,216.667 541.667,210.833 541.5,205C 541.504,198.793 542.171,192.96 543.5,187.5 Z"/></g>
<g><path style="opacity:1" fill="#8978a7" d="M 524.5,206.5 C 524.33,207.822 524.663,208.989 525.5,210C 485.833,210.667 446.167,210.667 406.5,210C 407.167,209.667 407.833,209.333 408.5,209C 407.263,208.768 406.263,208.268 405.5,207.5C 445.006,206.139 484.673,205.806 524.5,206.5 Z"/></g>
<g><path style="opacity:0.723" fill="#56496e" d="M 524.5,206.5 C 528.465,208.614 528.132,210.28 523.5,211.5C 484.178,212.334 444.845,212.167 405.5,211C 404.209,209.708 404.209,208.542 405.5,207.5C 406.263,208.268 407.263,208.768 408.5,209C 407.833,209.333 407.167,209.667 406.5,210C 446.167,210.667 485.833,210.667 525.5,210C 524.663,208.989 524.33,207.822 524.5,206.5 Z"/></g>
<g><path style="opacity:1" fill="#7f6e9d" d="M 587.5,173.5 C 595.226,178.356 602.559,183.689 609.5,189.5C 608.883,189.611 608.383,189.944 608,190.5C 605.991,189.167 604.324,187.5 603,185.5C 602.1,186.77 600.934,187.77 599.5,188.5C 600.947,189.935 602.614,190.935 604.5,191.5C 603.504,191.414 602.671,191.748 602,192.5C 593.39,204.745 584.556,216.745 575.5,228.5C 572.366,227.892 571.699,226.226 573.5,223.5C 581.589,211.564 589.922,199.731 598.5,188C 596.316,186.637 594.316,185.137 592.5,183.5C 592.953,182.542 593.619,181.708 594.5,181C 592.115,178.387 589.781,175.887 587.5,173.5 Z"/></g>
<g><path style="opacity:0.094" fill="#37223e" d="M 400.5,222.5 C 403.001,222.511 403.168,223.178 401,224.5C 400.536,223.906 400.369,223.239 400.5,222.5 Z"/></g>
<g><path style="opacity:0.805" fill="#594c70" d="M 371.5,157.5 C 371.5,158.5 371.5,159.5 371.5,160.5C 370.337,224.763 370.171,289.096 371,353.5C 371.417,352.244 372.25,351.577 373.5,351.5C 374.11,353.85 374.444,353.517 374.5,350.5C 376.473,359.806 382.14,365.473 391.5,367.5C 389.801,367.34 388.134,367.506 386.5,368C 387.684,369.145 387.684,370.312 386.5,371.5C 376.629,368.457 370.796,361.791 369,351.5C 368.685,290.306 368.519,229.139 368.5,168C 368.623,164.143 369.623,160.643 371.5,157.5 Z"/></g>
<g><path style="opacity:1" fill="#8270a0" d="M 609.5,189.5 C 610.5,188.833 611.5,188.167 612.5,187.5C 613.922,187.709 615.255,188.209 616.5,189C 615.027,189.71 614.36,190.876 614.5,192.5C 609.936,199.948 605.103,207.281 600,214.5C 585.918,233.068 572.084,251.735 558.5,270.5C 557.488,269.128 556.488,267.795 555.5,266.5C 572.089,242.731 588.922,219.064 606,195.5C 606.3,193.934 605.8,192.601 604.5,191.5C 602.614,190.935 600.947,189.935 599.5,188.5C 600.934,187.77 602.1,186.77 603,185.5C 604.324,187.5 605.991,189.167 608,190.5C 608.383,189.944 608.883,189.611 609.5,189.5 Z"/></g>
<g><path style="opacity:0.791" fill="#524565" d="M 526.5,231.5 C 486.832,231.333 447.165,231.5 407.5,232C 406.663,233.011 406.33,234.178 406.5,235.5C 404.401,234.63 404.068,233.297 405.5,231.5C 442.813,229.637 480.147,229.137 517.5,230C 520.695,230.181 523.695,230.681 526.5,231.5 Z"/></g>
<g><path style="opacity:1" fill="#7f6e9d" d="M 526.5,231.5 C 527.791,232.473 527.791,233.473 526.5,234.5C 520.549,235.586 514.549,236.253 508.5,236.5C 474.457,236.526 440.457,236.193 406.5,235.5C 406.33,234.178 406.663,233.011 407.5,232C 447.165,231.5 486.832,231.333 526.5,231.5 Z"/></g>
<g><path style="opacity:1" fill="#7e6c9b" d="M 573.5,223.5 C 571.699,226.226 572.366,227.892 575.5,228.5C 558.911,252.269 542.078,275.936 525,299.5C 524.186,301.902 524.353,304.235 525.5,306.5C 526.183,306.137 526.85,305.804 527.5,305.5C 525.394,307.079 523.06,308.412 520.5,309.5C 519.596,308.791 519.263,307.791 519.5,306.5C 520.833,306.5 522.167,306.5 523.5,306.5C 523.808,304.076 523.474,301.743 522.5,299.5C 520.872,298.465 519.205,298.465 517.5,299.5C 535.812,273.862 554.479,248.528 573.5,223.5 Z"/></g>
<g><path style="opacity:1" fill="#8f7db2" d="M 371.5,160.5 C 372.872,168.667 373.872,177 374.5,185.5C 373.678,206.79 373.178,228.124 373,249.5C 372.5,250 372,250.5 371.5,251C 372.798,255.077 373.464,259.411 373.5,264C 373.464,268.589 372.798,272.923 371.5,277C 373.485,301.605 374.151,326.438 373.5,351.5C 372.25,351.577 371.417,352.244 371,353.5C 370.171,289.096 370.337,224.763 371.5,160.5 Z"/></g>
<g><path style="opacity:1" fill="#8f7daf" d="M 406.5,255.5 C 443.839,255.167 481.173,255.5 518.5,256.5C 517.167,258.167 517.167,259.833 518.5,261.5C 517.273,262.59 516.44,263.924 516,265.5C 515.51,264.207 515.343,262.873 515.5,261.5C 479.515,259.506 443.182,258.84 406.5,259.5C 403.833,258.167 403.833,256.833 406.5,255.5 Z"/></g>
<g><path style="opacity:1" fill="#756491" d="M 537.5,228.5 C 537.739,230.467 537.406,232.301 536.5,234C 537.448,234.483 538.448,234.649 539.5,234.5C 527.5,252.494 515,270.16 502,287.5C 501.568,288.6 502.068,289.267 503.5,289.5C 505.801,289.016 507.801,288.016 509.5,286.5C 509.67,287.822 509.337,288.989 508.5,290C 503.826,290.333 499.16,290.167 494.5,289.5C 494.737,290.791 494.404,291.791 493.5,292.5C 493.5,291.833 493.5,291.167 493.5,290.5C 494.048,288.606 495.048,286.94 496.5,285.5C 466.172,284.667 435.839,284.167 405.5,284C 404.084,282.085 404.418,280.585 406.5,279.5C 406.833,279.5 407.167,279.5 407.5,279.5C 406.766,280.708 406.433,282.041 406.5,283.5C 436.841,283.167 467.174,283.5 497.5,284.5C 498.628,285.262 499.795,285.929 501,286.5C 502.518,284.187 502.684,281.854 501.5,279.5C 501.5,279.167 501.5,278.833 501.5,278.5C 505.025,272.77 509.025,267.437 513.5,262.5C 514.167,262.167 514.833,261.833 515.5,261.5C 515.343,262.873 515.51,264.207 516,265.5C 516.44,263.924 517.273,262.59 518.5,261.5C 517.167,259.833 517.167,258.167 518.5,256.5C 481.173,255.5 443.839,255.167 406.5,255.5C 444.002,254.833 481.669,254.167 519.5,253.5C 525.192,245.482 530.858,237.482 536.5,229.5C 536.5,228.833 536.833,228.5 537.5,228.5 Z"/></g>
<g><path style="opacity:0.476" fill="#514167" d="M 406.5,259.5 C 443.182,258.84 479.515,259.506 515.5,261.5C 514.833,261.833 514.167,262.167 513.5,262.5C 478.012,260.835 442.345,259.835 406.5,259.5 Z"/></g>
<g><path style="opacity:1" fill="#816f9e" d="M 563.5,211.5 C 563.039,213.55 562.372,215.55 561.5,217.5C 562.325,218.386 563.325,218.719 564.5,218.5C 548.066,241.715 531.399,264.715 514.5,287.5C 514.649,286.448 514.483,285.448 514,284.5C 512.67,285.582 511.17,286.249 509.5,286.5C 526.767,260.962 544.767,235.962 563.5,211.5 Z"/></g>
<g><path style="opacity:0.2" fill="#302538" d="M 400.5,276.5 C 402.337,276.639 402.67,277.306 401.5,278.5C 400.702,278.043 400.369,277.376 400.5,276.5 Z"/></g>
<g><path style="opacity:0.178" fill="#322147" d="M 501.5,278.5 C 501.5,278.833 501.5,279.167 501.5,279.5C 470.167,279.5 438.833,279.5 407.5,279.5C 407.167,279.5 406.833,279.5 406.5,279.5C 422.731,279.151 438.898,278.151 455,276.5C 470.258,278.475 485.758,279.142 501.5,278.5 Z"/></g>
<g><path style="opacity:0.985" fill="#907eb1" d="M 407.5,279.5 C 438.833,279.5 470.167,279.5 501.5,279.5C 502.684,281.854 502.518,284.187 501,286.5C 499.795,285.929 498.628,285.262 497.5,284.5C 467.174,283.5 436.841,283.167 406.5,283.5C 406.433,282.041 406.766,280.708 407.5,279.5 Z"/></g>
<g><path style="opacity:0.996" fill="#816e9f" d="M 555.5,266.5 C 556.488,267.795 557.488,269.128 558.5,270.5C 557.997,295.192 557.83,320.526 558,346.5C 557.667,349.833 557.333,353.167 557,356.5C 556.617,357.056 556.117,357.389 555.5,357.5C 554.778,357.082 554.278,356.416 554,355.5C 553.833,329.827 553.333,304.16 552.5,278.5C 551.575,279.357 550.908,280.357 550.5,281.5C 550.5,282.167 550.167,282.5 549.5,282.5C 548.85,280.565 548.517,278.565 548.5,276.5C 549.5,276.5 550.5,276.5 551.5,276.5C 551.5,274.833 551.5,273.167 551.5,271.5C 552.124,269.246 553.457,267.579 555.5,266.5 Z"/></g>
<g><path style="opacity:1" fill="#776593" d="M 551.5,271.5 C 551.5,273.167 551.5,274.833 551.5,276.5C 550.5,276.5 549.5,276.5 548.5,276.5C 548.517,278.565 548.85,280.565 549.5,282.5C 547.603,285.947 545.437,289.28 543,292.5C 542.831,309.005 542.331,325.338 541.5,341.5C 541.667,325.497 541.5,309.497 541,293.5C 540.667,292.833 540.333,292.167 540,291.5C 538.615,292.551 537.615,293.884 537,295.5C 536.667,295.167 536.333,294.833 536,294.5C 535.257,296.874 535.757,298.874 537.5,300.5C 535.952,300.821 535.285,301.821 535.5,303.5C 532.732,306.842 530.066,310.342 527.5,314C 523.807,315.847 520.14,317.68 516.5,319.5C 516.5,318.5 516.5,317.5 516.5,316.5C 514.833,316.5 513.167,316.5 511.5,316.5C 514.75,314.388 517.75,312.055 520.5,309.5C 523.06,308.412 525.394,307.079 527.5,305.5C 535.011,293.807 543.011,282.474 551.5,271.5 Z"/></g>
<g><path style="opacity:0.09" fill="#190b2b" d="M 382.5,187.5 C 383.5,187.5 384.5,187.5 385.5,187.5C 385.5,238.5 385.5,289.5 385.5,340.5C 385.157,289.453 384.157,238.453 382.5,187.5 Z"/></g>
<g><path style="opacity:1" fill="#8775a6" d="M 514.5,287.5 C 512.977,289.867 511.644,292.367 510.5,295C 511.495,298.502 513.829,300.002 517.5,299.5C 519.205,298.465 520.872,298.465 522.5,299.5C 523.474,301.743 523.808,304.076 523.5,306.5C 522.167,306.5 520.833,306.5 519.5,306.5C 511.983,306.422 506.983,302.922 504.5,296C 502.414,295.685 500.414,295.185 498.5,294.5C 497.596,295.209 497.263,296.209 497.5,297.5C 496.5,297.5 495.5,297.5 494.5,297.5C 494.826,301.884 494.492,306.217 493.5,310.5C 492.019,309.52 490.685,308.353 489.5,307C 487.744,306.798 486.078,306.298 484.5,305.5C 486.969,304.832 489.302,304.165 491.5,303.5C 493.082,300.124 493.749,296.458 493.5,292.5C 494.404,291.791 494.737,290.791 494.5,289.5C 499.16,290.167 503.826,290.333 508.5,290C 509.337,288.989 509.67,287.822 509.5,286.5C 511.17,286.249 512.67,285.582 514,284.5C 514.483,285.448 514.649,286.448 514.5,287.5 Z"/></g>
<g><path style="opacity:0.698" fill="#45355d" d="M 493.5,290.5 C 493.5,291.167 493.5,291.833 493.5,292.5C 493.749,296.458 493.082,300.124 491.5,303.5C 491.167,303.5 490.833,303.5 490.5,303.5C 491.402,299.052 492.402,294.719 493.5,290.5 Z"/></g>
<g><path style="opacity:1" fill="#8b79aa" d="M 455.5,303.5 C 463.676,304.167 472.01,304.833 480.5,305.5C 469.625,305.986 458.959,306.986 448.5,308.5C 434.163,308.667 419.829,308.5 405.5,308C 404.167,306.667 404.167,305.333 405.5,304C 422.163,303.5 438.83,303.333 455.5,303.5 Z"/></g>
<g><path style="opacity:0.999" fill="#8573a3" d="M 498.5,294.5 C 496.992,301.536 495.992,308.536 495.5,315.5C 499.191,315.785 502.691,316.785 506,318.5C 507.8,317.68 509.634,317.014 511.5,316.5C 513.167,316.5 514.833,316.5 516.5,316.5C 516.5,317.5 516.5,318.5 516.5,319.5C 512.117,322.358 507.45,324.692 502.5,326.5C 501.5,326.833 500.833,327.5 500.5,328.5C 498.451,328.294 498.117,327.461 499.5,326C 498.255,325.209 496.922,324.709 495.5,324.5C 499.344,321.562 498.677,320.896 493.5,322.5C 493.631,321.761 493.464,321.094 493,320.5C 491.951,322.107 490.451,322.773 488.5,322.5C 488.784,324.415 488.451,326.081 487.5,327.5C 487.714,321.498 488.714,315.665 490.5,310C 490.167,309.667 489.833,309.333 489.5,309C 475.837,308.5 462.171,308.333 448.5,308.5C 458.959,306.986 469.625,305.986 480.5,305.5C 472.01,304.833 463.676,304.167 455.5,303.5C 467.167,303.5 478.833,303.5 490.5,303.5C 490.833,303.5 491.167,303.5 491.5,303.5C 489.302,304.165 486.969,304.832 484.5,305.5C 486.078,306.298 487.744,306.798 489.5,307C 490.685,308.353 492.019,309.52 493.5,310.5C 494.492,306.217 494.826,301.884 494.5,297.5C 495.5,297.5 496.5,297.5 497.5,297.5C 497.263,296.209 497.596,295.209 498.5,294.5 Z M 495.5,324.5 C 494.167,324.5 493.5,323.833 493.5,322.5C 498.677,320.896 499.344,321.562 495.5,324.5 Z"/></g>
<g><path style="opacity:0.593" fill="#433756" d="M 537.5,300.5 C 537.667,314.171 537.5,327.837 537,341.5C 536.768,342.737 536.268,343.737 535.5,344.5C 535.574,330.795 535.574,317.129 535.5,303.5C 535.285,301.821 535.952,300.821 537.5,300.5 Z"/></g>
<g><path style="opacity:0.506" fill="#55446e" d="M 502.5,326.5 C 509.989,327.329 517.656,327.829 525.5,328C 528.106,329.65 528.106,331.15 525.5,332.5C 525.461,331.417 525.127,330.417 524.5,329.5C 516.528,328.502 508.528,328.169 500.5,328.5C 500.833,327.5 501.5,326.833 502.5,326.5 Z"/></g>
<g><path style="opacity:0.133" fill="#362c3f" d="M 400.5,330.5 C 403.001,330.511 403.168,331.178 401,332.5C 400.536,331.906 400.369,331.239 400.5,330.5 Z"/></g>
<g><path style="opacity:0.928" fill="#7a6997" d="M 493.5,322.5 C 493.5,323.833 494.167,324.5 495.5,324.5C 496.922,324.709 498.255,325.209 499.5,326C 498.117,327.461 498.451,328.294 500.5,328.5C 508.528,328.169 516.528,328.502 524.5,329.5C 525.127,330.417 525.461,331.417 525.5,332.5C 486.002,333.665 446.335,333.831 406.5,333C 403.833,331.333 403.833,329.667 406.5,328C 433.498,327.5 460.498,327.333 487.5,327.5C 488.451,326.081 488.784,324.415 488.5,322.5C 490.451,322.773 491.951,322.107 493,320.5C 493.464,321.094 493.631,321.761 493.5,322.5 Z"/></g>
<g><path style="opacity:0.694" fill="#746390" d="M 391.5,187.5 C 390.838,213.429 390.504,239.429 390.5,265.5C 390.346,292.227 390.846,318.894 392,345.5C 393.961,348.135 396.461,349.969 399.5,351C 442.165,351.5 484.832,351.667 527.5,351.5C 484.294,352.172 440.961,352.838 397.5,353.5C 396.304,353.154 396.304,352.654 397.5,352C 396.552,351.517 395.552,351.351 394.5,351.5C 394.5,352.5 394.5,353.5 394.5,354.5C 392.321,354.16 390.488,353.16 389,351.5C 386.965,348.439 385.799,345.105 385.5,341.5C 385.833,341.5 386.167,341.5 386.5,341.5C 387.011,343.195 387.678,344.861 388.5,346.5C 389.5,294.838 389.833,243.171 389.5,191.5C 389.157,189.517 389.824,188.183 391.5,187.5 Z"/></g>
<g><path style="opacity:1" fill="#907eb1" d="M 527.5,351.5 C 529.665,351.116 531.332,351.783 532.5,353.5C 514.936,354.173 497.436,354.84 480,355.5C 451.574,354.505 423.074,354.171 394.5,354.5C 394.5,353.5 394.5,352.5 394.5,351.5C 395.552,351.351 396.552,351.517 397.5,352C 396.304,352.654 396.304,353.154 397.5,353.5C 440.961,352.838 484.294,352.172 527.5,351.5 Z"/></g>
<g><path style="opacity:0.903" fill="#8d7ba9" d="M 541.5,341.5 C 541.44,349.061 537.774,353.894 530.5,356C 485.833,356.667 441.167,356.667 396.5,356C 395.584,355.722 394.918,355.222 394.5,354.5C 423.074,354.171 451.574,354.505 480,355.5C 497.436,354.84 514.936,354.173 532.5,353.5C 531.332,351.783 529.665,351.116 527.5,351.5C 530.735,349.939 533.402,347.606 535.5,344.5C 536.268,343.737 536.768,342.737 537,341.5C 537.5,327.837 537.667,314.171 537.5,300.5C 535.757,298.874 535.257,296.874 536,294.5C 536.333,294.833 536.667,295.167 537,295.5C 537.615,293.884 538.615,292.551 540,291.5C 540.333,292.167 540.667,292.833 541,293.5C 541.5,309.497 541.667,325.497 541.5,341.5 Z"/></g>
<g><path style="opacity:1" fill="#65577c" d="M 555.5,357.5 C 550.849,368.336 542.516,373.336 530.5,372.5C 530.842,371.662 531.508,371.328 532.5,371.5C 535.989,370.07 539.656,369.236 543.5,369C 541.063,367.625 538.397,367.125 535.5,367.5C 544.781,365.553 550.447,359.886 552.5,350.5C 551.408,327.592 551.408,304.759 552.5,282C 551.906,281.536 551.239,281.369 550.5,281.5C 550.908,280.357 551.575,279.357 552.5,278.5C 553.333,304.16 553.833,329.827 554,355.5C 554.278,356.416 554.778,357.082 555.5,357.5 Z"/></g>
<g><path style="opacity:1" fill="#8876a9" d="M 391.5,367.5 C 439.5,367.5 487.5,367.5 535.5,367.5C 538.397,367.125 541.063,367.625 543.5,369C 539.656,369.236 535.989,370.07 532.5,371.5C 483.993,370.224 435.327,370.224 386.5,371.5C 387.684,370.312 387.684,369.145 386.5,368C 388.134,367.506 389.801,367.34 391.5,367.5 Z"/></g>
<g><path style="opacity:0.828" fill="#8e7da8" d="M 532.5,371.5 C 531.508,371.328 530.842,371.662 530.5,372.5C 482.33,372.832 434.33,372.499 386.5,371.5C 435.327,370.224 483.993,370.224 532.5,371.5 Z"/></g>
<g><path style="opacity:0.479" fill="#6f6082" d="M 650.5,429.5 C 650.5,426.833 650.5,424.167 650.5,421.5C 650.5,420.167 650.5,418.833 650.5,417.5C 634.167,417.5 617.833,417.5 601.5,417.5C 601.5,421.5 601.5,425.5 601.5,429.5C 600.515,425.366 600.182,421.032 600.5,416.5C 617.5,416.5 634.5,416.5 651.5,416.5C 651.818,421.032 651.485,425.366 650.5,429.5 Z"/></g>
<g><path style="opacity:1" fill="#d6c7f3" d="M 489.5,417.5 C 490.803,419.142 492.136,420.809 493.5,422.5C 492.02,426.859 493.52,429.859 498,431.5C 498.167,432.667 498.333,433.833 498.5,435C 497.503,437.833 496.503,440.666 495.5,443.5C 493.833,443.5 492.167,443.5 490.5,443.5C 490.5,453.167 490.5,462.833 490.5,472.5C 485.833,472.5 481.167,472.5 476.5,472.5C 476.5,454.167 476.5,435.833 476.5,417.5C 480.833,417.5 485.167,417.5 489.5,417.5 Z"/></g>
<g><path style="opacity:1" fill="#cebee9" d="M 367.5,417.5 C 367.896,420.044 367.229,422.211 365.5,424C 369.495,423.607 373.162,424.773 376.5,427.5C 378.396,428.466 380.396,428.799 382.5,428.5C 382.934,425.834 381.934,424.667 379.5,425C 380.016,427.033 379.35,427.033 377.5,425C 378.955,422.984 380.955,422.151 383.5,422.5C 383.351,423.552 383.517,424.552 384,425.5C 384.333,425.167 384.667,424.833 385,424.5C 386.426,426.766 388.259,428.433 390.5,429.5C 392.015,431.429 392.682,434.762 392.5,439.5C 386.794,429.249 379.127,426.749 369.5,432C 364.261,436.718 362.428,442.551 364,449.5C 365.116,452.756 366.949,455.422 369.5,457.5C 369.557,458.609 369.89,459.609 370.5,460.5C 366.117,462.24 363.784,460.573 363.5,455.5C 361.459,455.854 359.626,455.854 358,455.5C 357.5,456 357,456.5 356.5,457C 358.886,457.284 359.552,458.284 358.5,460C 360.116,460.615 361.449,461.615 362.5,463C 361.451,463.492 360.451,463.326 359.5,462.5C 358.614,463.325 358.281,464.325 358.5,465.5C 363.583,467.045 368.583,468.712 373.5,470.5C 372.167,471.167 370.833,471.833 369.5,472.5C 354.94,469.265 347.273,460.098 346.5,445C 346.922,434.506 351.589,426.173 360.5,420C 362.65,418.589 364.984,417.755 367.5,417.5 Z"/></g>
<g><path style="opacity:1" fill="#cbbbe6" d="M 407.5,453.5 C 407.536,449.547 406.869,445.714 405.5,442C 407.288,438.749 406.788,435.916 404,433.5C 403.667,434.167 403.333,434.833 403,435.5C 402.333,434.167 401.667,434.167 401,435.5C 399.331,433.831 398.498,431.831 398.5,429.5C 395.833,429.5 393.167,429.5 390.5,429.5C 388.259,428.433 386.426,426.766 385,424.5C 384.667,424.833 384.333,425.167 384,425.5C 383.517,424.552 383.351,423.552 383.5,422.5C 380.955,422.151 378.955,422.984 377.5,425C 379.35,427.033 380.016,427.033 379.5,425C 381.934,424.667 382.934,425.834 382.5,428.5C 380.396,428.799 378.396,428.466 376.5,427.5C 373.162,424.773 369.495,423.607 365.5,424C 367.229,422.211 367.896,420.044 367.5,417.5C 386.095,412.217 399.595,418.217 408,435.5C 410.136,441.713 409.969,447.713 407.5,453.5 Z"/></g>
<g><path style="opacity:1" fill="#cebee9" d="M 528.5,417.5 C 529.497,435.659 529.83,453.992 529.5,472.5C 524.821,472.666 520.155,472.499 515.5,472C 507.667,462.833 499.833,453.667 492,444.5C 491.83,454.009 491.33,463.342 490.5,472.5C 490.5,462.833 490.5,453.167 490.5,443.5C 492.167,443.5 493.833,443.5 495.5,443.5C 496.503,440.666 497.503,437.833 498.5,435C 498.333,433.833 498.167,432.667 498,431.5C 493.52,429.859 492.02,426.859 493.5,422.5C 499.833,429.833 506.167,437.167 512.5,444.5C 513.499,436.252 513.832,427.252 513.5,417.5C 518.5,417.5 523.5,417.5 528.5,417.5 Z"/></g>
<g><path style="opacity:1" fill="#cdbde9" d="M 650.5,421.5 C 648.88,422.841 647.88,424.674 647.5,427C 637.907,428.648 628.241,429.481 618.5,429.5C 618.5,443.833 618.5,458.167 618.5,472.5C 617.504,458.343 617.171,444.01 617.5,429.5C 612.167,429.5 606.833,429.5 601.5,429.5C 601.5,425.5 601.5,421.5 601.5,417.5C 617.833,417.5 634.167,417.5 650.5,417.5C 650.5,418.833 650.5,420.167 650.5,421.5 Z"/></g>
<g><path style="opacity:1" fill="#d4c4f0" d="M 454.5,417.5 C 460.562,418.382 465.562,421.215 469.5,426C 466.276,429.727 462.609,432.894 458.5,435.5C 455.769,432.469 452.436,430.469 448.5,429.5C 446.167,428.167 443.833,428.167 441.5,429.5C 435.456,429.085 431.456,431.752 429.5,437.5C 431.094,440.372 430.427,441.039 427.5,439.5C 425.733,438.35 424.567,439.017 424,441.5C 423.37,439.097 424.203,437.263 426.5,436C 425.551,435.383 424.718,435.549 424,436.5C 423.667,435.833 423.333,435.167 423,434.5C 422.667,436.167 422.333,437.833 422,439.5C 421.185,435.512 420.685,431.679 420.5,428C 424.968,425.619 429.635,423.619 434.5,422C 432.355,421.257 432.189,420.424 434,419.5C 435.465,420.33 436.965,420.496 438.5,420C 437.833,419.667 437.167,419.333 436.5,419C 440.064,419.023 443.564,418.856 447,418.5C 448.285,418.95 449.452,419.617 450.5,420.5C 452.271,419.965 452.604,419.131 451.5,418C 452.448,417.517 453.448,417.351 454.5,417.5 Z"/></g>
<g><path style="opacity:1" fill="#d7c7f3" d="M 574.5,430.5 C 570.723,429.043 566.889,427.377 563,425.5C 559.5,427.678 555.833,429.678 552,431.5C 549.638,430.371 547.305,430.371 545,431.5C 543.831,430.991 542.998,430.158 542.5,429C 543.744,428.544 544.577,429.044 545,430.5C 545.925,429.953 546.758,429.287 547.5,428.5C 546.833,428.167 546.167,427.833 545.5,427.5C 546.456,425.925 547.123,424.258 547.5,422.5C 554.338,420.123 561.172,418.456 568,417.5C 572.008,419.25 576.175,420.583 580.5,421.5C 583.136,423.064 582.969,424.397 580,425.5C 578.951,424.483 577.784,424.316 576.5,425C 577.91,425.368 578.91,426.201 579.5,427.5C 579.062,428.506 578.396,428.506 577.5,427.5C 576.859,428.993 575.859,429.993 574.5,430.5 Z"/></g>
<g><path style="opacity:0.999" fill="#d6c7ef" d="M 693.5,417.5 C 693.5,417.833 693.5,418.167 693.5,418.5C 682.495,418.333 671.495,418.5 660.5,419C 660,419.5 659.5,420 659,420.5C 659.003,422.856 659.503,425.189 660.5,427.5C 659.562,440.879 659.228,454.213 659.5,467.5C 660.183,470.461 661.016,470.795 662,468.5C 662.333,469.167 662.667,469.833 663,470.5C 663.77,469.402 664.603,469.402 665.5,470.5C 666.959,470.567 668.292,470.234 669.5,469.5C 677.682,470.246 686.682,470.579 696.5,470.5C 697.287,469.758 697.953,468.925 698.5,468C 697.167,467 697.167,466 698.5,465C 698.243,463.032 696.91,461.532 694.5,460.5C 697.397,460.125 700.063,460.625 702.5,462C 701.544,465.394 701.211,468.894 701.5,472.5C 686.833,472.5 672.167,472.5 657.5,472.5C 657.5,454.167 657.5,435.833 657.5,417.5C 669.5,417.5 681.5,417.5 693.5,417.5 Z"/></g>
<g><path style="opacity:1" fill="#d7c7f5" d="M 693.5,418.5 C 695.167,418.5 696.833,418.5 698.5,418.5C 697.793,421.786 697.46,425.119 697.5,428.5C 689.493,428.666 681.493,428.5 673.5,428C 670.928,425.713 667.928,424.547 664.5,424.5C 664.241,427.565 665.241,430.065 667.5,432C 665.109,433.309 665.109,434.309 667.5,435C 666.5,436 665.5,437 664.5,438C 665.317,446.088 665.817,454.255 666,462.5C 670.651,465.515 670.485,468.182 665.5,470.5C 664.603,469.402 663.77,469.402 663,470.5C 662.667,469.833 662.333,469.167 662,468.5C 661.016,470.795 660.183,470.461 659.5,467.5C 659.228,454.213 659.562,440.879 660.5,427.5C 659.503,425.189 659.003,422.856 659,420.5C 659.5,420 660,419.5 660.5,419C 671.495,418.5 682.495,418.333 693.5,418.5 Z"/></g>
<g><path style="opacity:1" fill="#cfbfea" d="M 745.5,469.5 C 747.419,464.495 746.252,460.495 742,457.5C 741,458.833 740,460.167 739,461.5C 738.329,460.748 737.496,460.414 736.5,460.5C 739.061,458.323 739.061,456.156 736.5,454C 729.833,452 723.167,450 716.5,448C 707.71,443.702 704.877,436.868 708,427.5C 711.824,420.824 717.657,416.991 725.5,416C 735.146,414.551 744.146,416.218 752.5,421C 750.866,425.104 748.866,428.938 746.5,432.5C 740.258,428.917 733.591,427.751 726.5,429C 722.405,432.005 722.739,434.671 727.5,437C 736.505,438.22 744.671,441.387 752,446.5C 756.779,456.313 754.612,463.979 745.5,469.5 Z"/></g>
<g><path style="opacity:0.082" fill="#3f2c51" d="M 528.5,417.5 C 523.5,417.5 518.5,417.5 513.5,417.5C 513.832,427.252 513.499,436.252 512.5,444.5C 512.5,435.167 512.5,425.833 512.5,416.5C 518.026,416.179 523.36,416.512 528.5,417.5 Z"/></g>
<g><path style="opacity:1" fill="#c8b9e3" d="M 597.5,435.5 C 596.175,434.047 595.342,434.381 595,436.5C 593.065,433.629 591.399,430.629 590,427.5C 588.509,429.004 586.676,429.837 584.5,430C 585.76,431.814 585.76,433.647 584.5,435.5C 583.325,434.145 582.325,434.312 581.5,436C 582.308,437.706 583.641,438.539 585.5,438.5C 584.75,444.834 583.916,451.167 583,457.5C 580.774,459.885 577.941,461.051 574.5,461C 573.421,461.956 572.255,462.789 571,463.5C 568.262,462.518 565.428,461.852 562.5,461.5C 561.494,461.062 561.494,460.396 562.5,459.5C 578.69,460.837 584.856,453.504 581,437.5C 579.306,434.642 577.139,432.309 574.5,430.5C 575.859,429.993 576.859,428.993 577.5,427.5C 578.396,428.506 579.062,428.506 579.5,427.5C 578.91,426.201 577.91,425.368 576.5,425C 577.784,424.316 578.951,424.483 580,425.5C 582.969,424.397 583.136,423.064 580.5,421.5C 576.175,420.583 572.008,419.25 568,417.5C 561.172,418.456 554.338,420.123 547.5,422.5C 551.981,418.5 557.314,416.333 563.5,416C 579.889,414.019 591.222,420.519 597.5,435.5 Z"/></g>
<g><path style="opacity:1" fill="#d7c7f4" d="M 317.5,456.5 C 317.5,457.833 317.5,459.167 317.5,460.5C 317.5,461.5 317.5,462.5 317.5,463.5C 323.176,463.334 328.843,463.501 334.5,464C 335.643,467.022 336.977,467.188 338.5,464.5C 335.679,463.158 335.846,462.492 339,462.5C 341.543,463.407 343.043,465.241 343.5,468C 341.619,471.906 339.119,472.406 336,469.5C 325.283,470.736 314.95,470.736 305,469.5C 303.43,453.54 303.096,437.54 304,421.5C 306.508,419.826 309.342,418.826 312.5,418.5C 313.981,419.48 315.315,420.647 316.5,422C 315.844,427.755 315.51,433.588 315.5,439.5C 315.504,445.542 316.171,451.208 317.5,456.5 Z"/></g>
<g><path style="opacity:0.457" fill="#7e738e" d="M 441.5,429.5 C 443.833,428.167 446.167,428.167 448.5,429.5C 446.271,429.614 443.938,429.614 441.5,429.5 Z"/></g>
<g><path style="opacity:0.99" fill="#c9b9e2" d="M 650.5,421.5 C 650.5,424.167 650.5,426.833 650.5,429.5C 645.167,429.5 639.833,429.5 634.5,429.5C 634.5,443.833 634.5,458.167 634.5,472.5C 629.167,472.5 623.833,472.5 618.5,472.5C 618.5,458.167 618.5,443.833 618.5,429.5C 628.241,429.481 637.907,428.648 647.5,427C 647.88,424.674 648.88,422.841 650.5,421.5 Z"/></g>
<g><path style="opacity:1" fill="#cebfea" d="M 547.5,422.5 C 547.123,424.258 546.456,425.925 545.5,427.5C 546.167,427.833 546.833,428.167 547.5,428.5C 546.758,429.287 545.925,429.953 545,430.5C 544.577,429.044 543.744,428.544 542.5,429C 542.998,430.158 543.831,430.991 545,431.5C 547.305,430.371 549.638,430.371 552,431.5C 555.833,429.678 559.5,427.678 563,425.5C 566.889,427.377 570.723,429.043 574.5,430.5C 565.282,427.516 558.449,430.516 554,439.5C 551.909,448.424 554.742,455.091 562.5,459.5C 561.494,460.396 561.494,461.062 562.5,461.5C 562.918,462.222 563.584,462.722 564.5,463C 562.231,463.758 560.064,463.591 558,462.5C 557.5,463.667 556.667,464.5 555.5,465C 558.109,465.943 560.109,467.61 561.5,470C 563.764,469.302 565.597,469.802 567,471.5C 571.08,470.7 575.247,470.2 579.5,470C 580.646,469.355 581.646,468.522 582.5,467.5C 583.182,468.243 583.849,468.909 584.5,469.5C 569.324,477.932 555.49,475.932 543,463.5C 536.191,453.889 534.858,443.555 539,432.5C 540.948,428.387 543.781,425.054 547.5,422.5 Z"/></g>
<g><path style="opacity:1" fill="#d7c7f4" d="M 621.5,431.5 C 624.447,432.424 627.447,432.424 630.5,431.5C 630.207,443.531 630.54,455.531 631.5,467.5C 631.392,468.442 631.059,469.275 630.5,470C 627.574,470.218 624.74,470.718 622,471.5C 620.686,469.731 619.853,467.731 619.5,465.5C 620.692,453.909 621.358,442.576 621.5,431.5 Z"/></g>
<g><path style="opacity:0.613" fill="#7b6d91" d="M 302.5,417.5 C 307.64,416.512 312.974,416.179 318.5,416.5C 318.5,430.833 318.5,445.167 318.5,459.5C 327.349,459.174 336.016,459.507 344.5,460.5C 335.5,460.5 326.5,460.5 317.5,460.5C 317.5,459.167 317.5,457.833 317.5,456.5C 317.5,443.5 317.5,430.5 317.5,417.5C 312.5,417.5 307.5,417.5 302.5,417.5 Z"/></g>
<g><path style="opacity:1" fill="#cfbfeb" d="M 454.5,417.5 C 453.448,417.351 452.448,417.517 451.5,418C 452.604,419.131 452.271,419.965 450.5,420.5C 449.452,419.617 448.285,418.95 447,418.5C 443.564,418.856 440.064,419.023 436.5,419C 437.167,419.333 437.833,419.667 438.5,420C 436.965,420.496 435.465,420.33 434,419.5C 432.189,420.424 432.355,421.257 434.5,422C 429.635,423.619 424.968,425.619 420.5,428C 420.685,431.679 421.185,435.512 422,439.5C 422.333,437.833 422.667,436.167 423,434.5C 423.333,435.167 423.667,435.833 424,436.5C 424.718,435.549 425.551,435.383 426.5,436C 424.203,437.263 423.37,439.097 424,441.5C 424.567,439.017 425.733,438.35 427.5,439.5C 426.883,439.611 426.383,439.944 426,440.5C 425.333,443.5 425.333,446.5 426,449.5C 428.549,450.59 429.383,452.257 428.5,454.5C 427.573,452.054 425.906,451.221 423.5,452C 424.308,452.308 424.975,452.808 425.5,453.5C 424.5,454.833 423.5,456.167 422.5,457.5C 420.905,458.434 419.239,458.434 417.5,457.5C 410.324,440.198 414.99,427.031 431.5,418C 439.268,415.055 446.935,414.888 454.5,417.5 Z"/></g>
<g><path style="opacity:1" fill="#d2c3ef" d="M 597.5,435.5 C 601.966,450.359 597.633,461.692 584.5,469.5C 583.849,468.909 583.182,468.243 582.5,467.5C 581.646,468.522 580.646,469.355 579.5,470C 575.247,470.2 571.08,470.7 567,471.5C 565.597,469.802 563.764,469.302 561.5,470C 560.109,467.61 558.109,465.943 555.5,465C 556.667,464.5 557.5,463.667 558,462.5C 560.064,463.591 562.231,463.758 564.5,463C 563.584,462.722 562.918,462.222 562.5,461.5C 565.428,461.852 568.262,462.518 571,463.5C 572.255,462.789 573.421,461.956 574.5,461C 577.941,461.051 580.774,459.885 583,457.5C 583.916,451.167 584.75,444.834 585.5,438.5C 583.641,438.539 582.308,437.706 581.5,436C 582.325,434.312 583.325,434.145 584.5,435.5C 585.76,433.647 585.76,431.814 584.5,430C 586.676,429.837 588.509,429.004 590,427.5C 591.399,430.629 593.065,433.629 595,436.5C 595.342,434.381 596.175,434.047 597.5,435.5 Z"/></g>
<g><path style="opacity:1" fill="#d4c4ee" d="M 693.5,418.5 C 693.5,418.167 693.5,417.833 693.5,417.5C 695.833,417.5 698.167,417.5 700.5,417.5C 700.5,421.5 700.5,425.5 700.5,429.5C 691.143,429.168 681.81,429.502 672.5,430.5C 672.782,432.987 672.782,435.653 672.5,438.5C 680.5,438.5 688.5,438.5 696.5,438.5C 696.5,442.167 696.5,445.833 696.5,449.5C 693.833,449.5 691.167,449.5 688.5,449.5C 690.292,448.691 692.292,448.191 694.5,448C 684.716,447.366 684.383,446.199 693.5,444.5C 694.833,443.5 694.833,442.5 693.5,441.5C 685.983,441.385 679.149,441.385 673,441.5C 671.667,440.833 670.667,439.833 670,438.5C 668.937,447.864 669.437,457.03 671.5,466C 671.138,467.434 670.472,468.601 669.5,469.5C 668.292,470.234 666.959,470.567 665.5,470.5C 670.485,468.182 670.651,465.515 666,462.5C 665.817,454.255 665.317,446.088 664.5,438C 665.5,437 666.5,436 667.5,435C 665.109,434.309 665.109,433.309 667.5,432C 665.241,430.065 664.241,427.565 664.5,424.5C 667.928,424.547 670.928,425.713 673.5,428C 681.493,428.5 689.493,428.666 697.5,428.5C 697.46,425.119 697.793,421.786 698.5,418.5C 696.833,418.5 695.167,418.5 693.5,418.5 Z"/></g>
<g><path style="opacity:0.565" fill="#897b9e" d="M 489.5,417.5 C 485.167,417.5 480.833,417.5 476.5,417.5C 476.5,435.833 476.5,454.167 476.5,472.5C 475.503,454.007 475.17,435.341 475.5,416.5C 480.363,416.181 485.03,416.514 489.5,417.5 Z"/></g>
<g><path style="opacity:1" fill="#d4c4f1" d="M 688.5,449.5 C 682.974,449.179 677.64,449.512 672.5,450.5C 673.519,453.794 673.519,457.128 672.5,460.5C 679.833,460.5 687.167,460.5 694.5,460.5C 696.91,461.532 698.243,463.032 698.5,465C 697.167,466 697.167,467 698.5,468C 697.953,468.925 697.287,469.758 696.5,470.5C 686.682,470.579 677.682,470.246 669.5,469.5C 670.472,468.601 671.138,467.434 671.5,466C 669.437,457.03 668.937,447.864 670,438.5C 670.667,439.833 671.667,440.833 673,441.5C 679.149,441.385 685.983,441.385 693.5,441.5C 694.833,442.5 694.833,443.5 693.5,444.5C 684.383,446.199 684.716,447.366 694.5,448C 692.292,448.191 690.292,448.691 688.5,449.5 Z"/></g>
<g><path style="opacity:1" fill="#d6c7f4" d="M 390.5,429.5 C 393.167,429.5 395.833,429.5 398.5,429.5C 398.498,431.831 399.331,433.831 401,435.5C 401.667,434.167 402.333,434.167 403,435.5C 403.333,434.833 403.667,434.167 404,433.5C 406.788,435.916 407.288,438.749 405.5,442C 406.869,445.714 407.536,449.547 407.5,453.5C 407.5,453.833 407.5,454.167 407.5,454.5C 405.233,455.596 403.4,457.263 402,459.5C 401.125,457.487 399.791,457.487 398,459.5C 395.571,456.453 394.738,453.12 395.5,449.5C 395.154,448.304 394.654,448.304 394,449.5C 393.817,446.635 393.317,443.969 392.5,441.5C 392.5,440.833 392.5,440.167 392.5,439.5C 392.682,434.762 392.015,431.429 390.5,429.5 Z"/></g>
<g><path style="opacity:0.649" fill="#9183a6" d="M 700.5,417.5 C 698.167,417.5 695.833,417.5 693.5,417.5C 681.5,417.5 669.5,417.5 657.5,417.5C 657.5,435.833 657.5,454.167 657.5,472.5C 656.503,454.007 656.17,435.341 656.5,416.5C 671.343,416.171 686.01,416.504 700.5,417.5 Z"/></g>
<g><path style="opacity:0.767" fill="#9a8baf" d="M 696.5,438.5 C 697.239,438.369 697.906,438.536 698.5,439C 697.54,442.73 697.207,446.563 697.5,450.5C 689.167,450.5 680.833,450.5 672.5,450.5C 677.64,449.512 682.974,449.179 688.5,449.5C 691.167,449.5 693.833,449.5 696.5,449.5C 696.5,445.833 696.5,442.167 696.5,438.5 Z"/></g>
<g><path style="opacity:1" fill="#cdbde8" d="M 441.5,429.5 C 432.086,434.005 428.919,441.338 432,451.5C 433.277,453.747 434.777,455.747 436.5,457.5C 434.743,458.292 433.409,459.625 432.5,461.5C 431.201,460.91 430.368,459.91 430,458.5C 429.375,461.612 427.542,463.445 424.5,464C 425.448,464.483 426.448,464.649 427.5,464.5C 427.5,465.5 427.5,466.5 427.5,467.5C 430.546,467.183 432.213,468.516 432.5,471.5C 425.561,468.894 420.561,464.228 417.5,457.5C 419.239,458.434 420.905,458.434 422.5,457.5C 423.5,456.167 424.5,454.833 425.5,453.5C 424.975,452.808 424.308,452.308 423.5,452C 425.906,451.221 427.573,452.054 428.5,454.5C 429.383,452.257 428.549,450.59 426,449.5C 425.333,446.5 425.333,443.5 426,440.5C 426.383,439.944 426.883,439.611 427.5,439.5C 430.427,441.039 431.094,440.372 429.5,437.5C 431.456,431.752 435.456,429.085 441.5,429.5 Z"/></g>
<g><path style="opacity:1" fill="#cdbde7" d="M 392.5,441.5 C 393.317,443.969 393.817,446.635 394,449.5C 394.654,448.304 395.154,448.304 395.5,449.5C 394.738,453.12 395.571,456.453 398,459.5C 399.791,457.487 401.125,457.487 402,459.5C 403.4,457.263 405.233,455.596 407.5,454.5C 400.726,468.98 389.226,475.647 373,474.5C 371.698,473.915 370.531,473.249 369.5,472.5C 370.833,471.833 372.167,471.167 373.5,470.5C 379.368,470.9 385.368,470.4 391.5,469C 392.861,467.416 393.528,465.582 393.5,463.5C 392.178,463.67 391.011,463.337 390,462.5C 389.195,464.901 388.362,464.734 387.5,462C 389.901,461.195 389.734,460.362 387,459.5C 384.455,460.522 381.955,461.688 379.5,463C 384.73,464.102 384.73,464.935 379.5,465.5C 378.167,465.167 376.833,464.833 375.5,464.5C 374.346,462.435 372.68,461.102 370.5,460.5C 369.89,459.609 369.557,458.609 369.5,457.5C 384.725,463.293 392.392,457.96 392.5,441.5 Z"/></g>
<g><path style="opacity:1" fill="#d7c7f5" d="M 370.5,460.5 C 372.68,461.102 374.346,462.435 375.5,464.5C 376.833,464.833 378.167,465.167 379.5,465.5C 384.73,464.935 384.73,464.102 379.5,463C 381.955,461.688 384.455,460.522 387,459.5C 389.734,460.362 389.901,461.195 387.5,462C 388.362,464.734 389.195,464.901 390,462.5C 391.011,463.337 392.178,463.67 393.5,463.5C 393.528,465.582 392.861,467.416 391.5,469C 385.368,470.4 379.368,470.9 373.5,470.5C 368.583,468.712 363.583,467.045 358.5,465.5C 358.281,464.325 358.614,463.325 359.5,462.5C 360.451,463.326 361.451,463.492 362.5,463C 361.449,461.615 360.116,460.615 358.5,460C 359.552,458.284 358.886,457.284 356.5,457C 357,456.5 357.5,456 358,455.5C 359.626,455.854 361.459,455.854 363.5,455.5C 363.784,460.573 366.117,462.24 370.5,460.5 Z"/></g>
<g><path style="opacity:1" fill="#d0c0eb" d="M 736.5,460.5 C 737.496,460.414 738.329,460.748 739,461.5C 740,460.167 741,458.833 742,457.5C 746.252,460.495 747.419,464.495 745.5,469.5C 744.942,470.79 743.942,471.623 742.5,472C 739.45,472.679 736.45,473.512 733.5,474.5C 724.76,474.489 716.093,472.489 707.5,468.5C 707.191,463.734 708.691,459.4 712,455.5C 719.492,460.432 727.659,462.098 736.5,460.5 Z"/></g>
<g><path style="opacity:1" fill="#d0c0ea" d="M 432.5,471.5 C 432.213,468.516 430.546,467.183 427.5,467.5C 427.5,466.5 427.5,465.5 427.5,464.5C 426.448,464.649 425.448,464.483 424.5,464C 427.542,463.445 429.375,461.612 430,458.5C 430.368,459.91 431.201,460.91 432.5,461.5C 433.409,459.625 434.743,458.292 436.5,457.5C 444.7,461.894 452.2,460.894 459,454.5C 462.516,457.02 465.683,459.853 468.5,463C 466.512,466.321 463.846,468.988 460.5,471C 457.097,471.578 453.93,472.745 451,474.5C 447.333,473.167 443.667,473.167 440,474.5C 437.528,473.399 435.028,472.399 432.5,471.5 Z"/></g>
<g><path style="opacity:0.993" fill="#cabae2" d="M 287.5,441.5 C 287.196,442.15 286.863,442.817 286.5,443.5C 296.312,451.307 296.979,459.807 288.5,469C 286.283,470.275 283.949,471.275 281.5,472C 268.171,472.5 254.837,472.667 241.5,472.5C 241.5,453.833 241.5,435.167 241.5,416.5C 252.838,416.333 264.172,416.5 275.5,417C 287.456,418.275 292.622,424.775 291,436.5C 290.303,438.584 289.136,440.251 287.5,441.5 Z M 273.5,450.5 C 273.833,450.5 274.167,450.5 274.5,450.5C 275.167,451.167 275.833,451.833 276.5,452.5C 277.301,454.042 277.634,455.708 277.5,457.5C 276.089,459.539 274.089,460.539 271.5,460.5C 266.833,460.5 262.167,460.5 257.5,460.5C 257.5,457.167 257.5,453.833 257.5,450.5C 262.833,450.5 268.167,450.5 273.5,450.5 Z M 257.5,428.5 C 262.959,428.103 268.292,428.603 273.5,430C 276.45,433.654 275.784,436.487 271.5,438.5C 266.833,438.5 262.167,438.5 257.5,438.5C 257.5,435.167 257.5,431.833 257.5,428.5 Z"/></g>
<g><path style="opacity:0.125" fill="#574a68" d="M 276.5,452.5 C 277.649,452.791 278.316,453.624 278.5,455C 278.472,456.07 278.139,456.903 277.5,457.5C 277.634,455.708 277.301,454.042 276.5,452.5 Z"/></g>
<g><path style="opacity:0.418" fill="#69597c" d="M 273.5,450.5 C 268.167,450.5 262.833,450.5 257.5,450.5C 257.5,453.833 257.5,457.167 257.5,460.5C 262.167,460.5 266.833,460.5 271.5,460.5C 267.366,461.485 263.032,461.818 258.5,461.5C 257.833,461.5 257.167,461.5 256.5,461.5C 256.5,457.5 256.5,453.5 256.5,449.5C 262.358,449.178 268.025,449.511 273.5,450.5 Z"/></g>
<g><path style="opacity:1" fill="#d5c5f2" d="M 279.5,446.5 C 279.833,446.5 280.167,446.5 280.5,446.5C 283.072,447.724 285.405,449.391 287.5,451.5C 288.863,450.802 290.029,450.802 291,451.5C 293.049,454.511 292.883,457.344 290.5,460C 291.609,461.813 290.942,462.646 288.5,462.5C 288.923,465.288 287.923,467.288 285.5,468.5C 284.5,467.167 283.5,467.167 282.5,468.5C 281.808,467.975 281.308,467.308 281,466.5C 279.208,468.707 276.874,470.041 274,470.5C 272.855,470.381 271.688,470.048 270.5,469.5C 270.5,468.167 270.5,466.833 270.5,465.5C 268.545,464.68 267.045,463.68 266,462.5C 264.105,462.615 262.438,463.282 261,464.5C 259.583,463.922 258.75,462.922 258.5,461.5C 263.032,461.818 267.366,461.485 271.5,460.5C 274.089,460.539 276.089,459.539 277.5,457.5C 278.139,456.903 278.472,456.07 278.5,455C 278.316,453.624 277.649,452.791 276.5,452.5C 275.833,451.833 275.167,451.167 274.5,450.5C 276.176,449.817 276.843,448.483 276.5,446.5C 277.5,446.5 278.5,446.5 279.5,446.5 Z"/></g>
<g><path style="opacity:0.999" fill="#d4c5ef" d="M 279.5,446.5 C 278.5,446.5 277.5,446.5 276.5,446.5C 276.843,448.483 276.176,449.817 274.5,450.5C 274.167,450.5 273.833,450.5 273.5,450.5C 268.025,449.511 262.358,449.178 256.5,449.5C 256.5,453.5 256.5,457.5 256.5,461.5C 255.849,462.091 255.182,462.757 254.5,463.5C 253.334,452.849 253.168,442.182 254,431.5C 254.236,429.881 255.069,428.881 256.5,428.5C 257.919,427.549 259.585,427.216 261.5,427.5C 264.187,427.664 266.854,427.497 269.5,427C 268.5,426.667 267.5,426.333 266.5,426C 275.828,422.983 279.661,426.483 278,436.5C 276.412,438.421 274.912,440.421 273.5,442.5C 275.261,444.368 277.261,445.701 279.5,446.5 Z M 257.5,428.5 C 262.959,428.103 268.292,428.603 273.5,430C 276.45,433.654 275.784,436.487 271.5,438.5C 266.833,438.5 262.167,438.5 257.5,438.5C 257.5,435.167 257.5,431.833 257.5,428.5 Z"/></g>
<g><path style="opacity:0.408" fill="#77678a" d="M 256.5,428.5 C 256.833,428.5 257.167,428.5 257.5,428.5C 257.5,431.833 257.5,435.167 257.5,438.5C 262.167,438.5 266.833,438.5 271.5,438.5C 266.695,439.487 261.695,439.821 256.5,439.5C 256.5,435.833 256.5,432.167 256.5,428.5 Z"/></g>
<g><path style="opacity:1" fill="#d6c7f4" d="M 271.5,419.5 C 274.526,420.577 277.526,420.577 280.5,419.5C 282.986,421.578 283.986,424.245 283.5,427.5C 284.873,427.343 286.207,427.51 287.5,428C 288.223,430.112 289.223,432.112 290.5,434C 287.96,435.813 286.96,438.313 287.5,441.5C 286.318,439.9 284.985,439.567 283.5,440.5C 282.117,442.32 281.117,444.32 280.5,446.5C 280.167,446.5 279.833,446.5 279.5,446.5C 277.261,445.701 275.261,444.368 273.5,442.5C 274.912,440.421 276.412,438.421 278,436.5C 279.661,426.483 275.828,422.983 266.5,426C 267.5,426.333 268.5,426.667 269.5,427C 266.854,427.497 264.187,427.664 261.5,427.5C 259.898,425.926 257.898,425.259 255.5,425.5C 255.5,424.5 255.5,423.5 255.5,422.5C 252.813,422.664 250.146,422.497 247.5,422C 256.167,421.667 264.833,421.333 273.5,421C 272.584,420.722 271.918,420.222 271.5,419.5 Z"/></g>
<g><path style="opacity:1" fill="#d7c7f5" d="M 271.5,419.5 C 271.918,420.222 272.584,420.722 273.5,421C 264.833,421.333 256.167,421.667 247.5,422C 250.146,422.497 252.813,422.664 255.5,422.5C 255.5,423.5 255.5,424.5 255.5,425.5C 257.898,425.259 259.898,425.926 261.5,427.5C 259.585,427.216 257.919,427.549 256.5,428.5C 255.069,428.881 254.236,429.881 254,431.5C 253.168,442.182 253.334,452.849 254.5,463.5C 255.182,462.757 255.849,462.091 256.5,461.5C 257.167,461.5 257.833,461.5 258.5,461.5C 258.75,462.922 259.583,463.922 261,464.5C 262.438,463.282 264.105,462.615 266,462.5C 267.045,463.68 268.545,464.68 270.5,465.5C 270.5,466.833 270.5,468.167 270.5,469.5C 262.763,469.312 254.43,469.645 245.5,470.5C 243.929,468.108 243.095,465.774 243,463.5C 242.833,458.333 242.667,453.167 242.5,448C 242.436,438.426 243.103,429.092 244.5,420C 251.679,419.656 258.845,419.156 266,418.5C 267.924,418.581 269.757,418.914 271.5,419.5 Z"/></g>
<g><path style="opacity:0.877" fill="#d2c2e9" d="M 302.5,417.5 C 307.5,417.5 312.5,417.5 317.5,417.5C 317.5,430.5 317.5,443.5 317.5,456.5C 316.171,451.208 315.504,445.542 315.5,439.5C 315.51,433.588 315.844,427.755 316.5,422C 315.315,420.647 313.981,419.48 312.5,418.5C 309.342,418.826 306.508,419.826 304,421.5C 303.096,437.54 303.43,453.54 305,469.5C 314.95,470.736 325.283,470.736 336,469.5C 339.119,472.406 341.619,471.906 343.5,468C 343.043,465.241 341.543,463.407 339,462.5C 335.846,462.492 335.679,463.158 338.5,464.5C 336.977,467.188 335.643,467.022 334.5,464C 328.843,463.501 323.176,463.334 317.5,463.5C 317.5,462.5 317.5,461.5 317.5,460.5C 326.5,460.5 335.5,460.5 344.5,460.5C 345.483,464.298 345.817,468.298 345.5,472.5C 331.167,472.5 316.833,472.5 302.5,472.5C 302.5,454.167 302.5,435.833 302.5,417.5 Z"/></g>
</svg>
