<svg version="1.1" id="Layer_1" xmlns="http://www.w3.org/2000/svg" xmlns:xlink="http://www.w3.org/1999/xlink" x="0px" y="0px"
	 width="100%" viewBox="0 0 954 562" enable-background="new 0 0 954 562" xml:space="preserve">
<path fill="#000000" opacity="1.000000" stroke="none" 
	d="
M538.000000,563.000000 
	C358.666656,563.000000 179.833328,563.000000 1.000000,563.000000 
	C1.000000,375.666656 1.000000,188.333328 1.000000,1.000000 
	C319.000000,1.000000 637.000000,1.000000 955.000000,1.000000 
	C955.000000,188.333328 955.000000,375.666656 955.000000,563.000000 
	C816.166687,563.000000 677.333313,563.000000 538.000000,563.000000 
M495.008087,128.510559 
	C492.857880,124.298874 490.637299,120.178955 485.202179,119.542038 
	C479.855957,118.915543 475.548706,121.243828 472.937744,127.690842 
	C470.732666,133.135727 469.706146,139.057907 468.110199,144.945053 
	C466.076782,144.945053 463.678406,144.945053 462.368561,144.945053 
	C460.095276,138.068375 458.723358,131.484146 455.797211,125.683990 
	C452.154297,118.462990 444.346283,117.346649 439.245575,122.770950 
	C437.036041,125.120583 435.209900,128.171738 434.204712,131.231186 
	C432.776245,135.579025 432.265747,140.228485 431.306213,145.033691 
	C429.128326,145.033691 426.699036,145.033691 423.879242,145.033691 
	C423.563843,142.637695 423.585022,140.260590 422.898468,138.109360 
	C421.449554,133.569443 420.283081,128.743546 417.820343,124.765816 
	C413.380005,117.593964 405.108063,117.286430 400.674164,124.448677 
	C397.646515,129.339233 396.252197,135.387131 394.890015,141.099380 
	C394.233856,143.851105 393.878876,145.390488 390.722137,146.001709 
	C378.579224,148.352859 371.071198,157.736221 371.066772,170.039261 
	C371.045288,229.860168 371.021454,289.681061 371.007568,349.501984 
	C371.004395,363.170013 381.081085,373.877258 394.794922,373.926208 
	C441.622192,374.093292 488.450775,374.095459 535.278015,373.926483 
	C548.885254,373.877380 558.974976,363.118591 559.025391,349.478241 
	C559.114014,325.489380 559.078979,301.499115 559.394470,277.513367 
	C559.432373,274.632416 560.743347,271.359619 562.448669,268.971436 
	C583.055054,240.114227 603.864929,211.402512 624.576233,182.620102 
	C629.338562,176.001923 628.317810,170.185699 621.780151,165.432846 
	C617.334229,162.200562 612.916809,158.927979 608.437134,155.743118 
	C601.403320,150.742386 596.149597,151.667603 591.019226,158.754547 
	C581.840332,171.434067 572.679321,184.126572 563.486755,196.796143 
	C562.582703,198.042145 561.510803,199.166428 560.516846,200.347198 
	C560.096191,200.213654 559.675537,200.080109 559.254883,199.946548 
	C559.254883,198.046509 559.270691,196.146301 559.252136,194.246445 
	C559.164124,185.256485 559.489746,176.237122 558.865051,167.284256 
	C558.097351,156.281830 550.395386,147.934937 539.611023,145.989471 
	C536.414734,145.412872 535.513489,144.074173 535.321594,141.194138 
	C534.895691,134.799820 533.581787,128.644379 529.345703,123.518219 
	C524.800293,118.017738 517.027527,117.597839 513.153442,123.499001 
	C510.243164,127.932030 508.864319,133.414948 507.098785,138.532257 
	C506.424835,140.485733 506.572632,142.722687 506.355408,144.742065 
	C498.625427,145.879471 498.774292,145.858429 497.782379,138.839020 
	C497.321472,135.577362 496.153870,132.415588 495.008087,128.510559 
M477.251221,442.499878 
	C477.251221,452.934235 477.251221,463.368591 477.251221,473.653748 
	C482.862823,473.653748 487.772522,473.653748 493.087219,473.653748 
	C493.087219,464.250427 493.087219,455.197754 493.087219,445.213806 
	C494.678162,447.014465 495.646729,448.060638 496.560211,449.152832 
	C502.647522,456.431091 508.674713,463.760651 514.847778,470.965302 
	C515.938171,472.237946 517.540527,473.686768 519.047241,473.865051 
	C522.631897,474.289307 526.300903,474.001740 530.006592,474.001740 
	C530.006592,455.357758 530.006592,437.090057 530.006592,418.609619 
	C524.950073,418.609619 520.170410,418.609619 514.700745,418.609619 
	C514.700745,427.941376 514.700745,437.214142 514.700745,447.674133 
	C507.854401,439.478516 501.224976,432.775482 496.109985,425.067444 
	C491.144135,417.584198 484.825653,417.789246 477.694855,418.821655 
	C477.498779,419.391907 477.303223,419.696991 477.301971,420.002899 
	C477.272278,427.168488 477.263611,434.334198 477.251221,442.499878 
M293.003265,433.418335 
	C292.407166,425.647278 288.350494,420.159180 280.017517,419.534882 
	C267.837250,418.622345 255.537827,419.300201 243.248291,419.300201 
	C243.248291,437.222717 243.248291,455.456329 243.248291,473.933838 
	C255.289902,473.933838 267.078308,474.085083 278.857697,473.825836 
	C281.743713,473.762329 284.751770,472.697052 287.440033,471.500153 
	C293.923615,468.613403 297.334015,462.273560 295.025970,455.559998 
	C293.585327,451.369476 290.091827,447.884705 288.065002,444.889313 
	C289.624634,441.490448 291.285095,437.871918 293.003265,433.418335 
M353.700500,462.753571 
	C361.818665,473.912292 373.309052,476.480347 386.002716,474.607941 
	C396.954407,472.992401 405.011871,466.761322 408.762512,456.160736 
	C416.053589,435.553436 401.276184,417.170868 378.160339,417.749603 
	C353.959290,418.355560 341.189636,441.135620 353.700500,462.753571 
M595.762329,462.206696 
	C600.400940,454.712952 601.595459,446.618744 599.173828,438.231415 
	C594.535278,422.166351 578.580994,414.305420 560.218689,418.711792 
	C548.649414,421.488037 541.502869,428.943146 539.228699,440.302063 
	C536.805481,452.404938 540.553711,462.781708 550.982971,470.019989 
	C562.203491,477.807495 585.095154,477.903961 595.762329,462.206696 
M699.092957,418.400482 
	C685.522522,418.400482 671.952148,418.400482 658.528687,418.400482 
	C658.528687,437.400269 658.528687,455.612335 658.528687,473.749390 
	C673.490479,473.749390 688.069702,473.749390 702.728760,473.749390 
	C702.728760,469.753448 702.728760,466.025208 702.728760,461.896606 
	C693.061462,461.896606 683.654541,461.896606 674.158264,461.896606 
	C674.158264,458.409180 674.158264,455.333374 674.158264,451.837006 
	C682.283386,451.837006 690.188477,451.837006 698.399536,451.837006 
	C698.399536,447.696289 698.399536,443.977631 698.399536,439.782043 
	C690.165771,439.782043 682.087646,439.782043 674.252197,439.782043 
	C674.252197,436.550323 674.252197,433.799316 674.252197,430.594788 
	C683.642151,430.594788 692.708557,430.594788 701.964844,430.594788 
	C701.964844,427.298737 702.147705,424.459564 701.875732,421.664642 
	C701.765381,420.530823 700.664429,419.493378 699.092957,418.400482 
M712.969727,458.120483 
	C711.251404,461.637543 709.533142,465.154602 707.644653,469.019989 
	C719.899963,475.772461 732.254517,477.080383 744.937134,472.574097 
	C752.008362,470.061615 756.094238,463.125366 755.750488,456.196442 
	C755.416931,449.472534 751.860779,445.444794 743.737610,442.728485 
	C741.540894,441.993896 739.276611,441.462006 737.044617,440.832550 
	C733.855713,439.933197 730.568542,439.270477 727.526550,438.014557 
	C726.232178,437.480164 724.523621,435.578583 724.663147,434.516357 
	C724.855286,433.053467 726.366638,431.282928 727.777954,430.585602 
	C729.456543,429.756195 731.707520,429.444885 733.571045,429.752869 
	C738.689575,430.598816 743.735229,431.886230 749.084595,433.059204 
	C750.404602,429.840118 751.895081,426.205231 753.613098,422.015564 
	C741.425293,416.642883 729.589050,415.607758 717.694641,421.027435 
	C710.850159,424.146088 708.321472,430.091248 708.892334,437.423798 
	C709.437561,444.427643 713.990417,447.962067 720.113708,449.879211 
	C725.182800,451.466278 730.441223,452.491119 735.419678,454.303680 
	C737.266663,454.976135 738.555542,457.181671 740.098938,458.688080 
	C738.270874,460.047791 736.597046,462.248688 734.587219,462.617371 
	C727.047058,464.000458 720.164673,461.452271 712.969727,458.120483 
M463.249420,470.789886 
	C465.608795,468.870178 467.968140,466.950470 470.548737,464.850739 
	C466.822266,461.520325 463.729889,458.756653 460.665161,456.017639 
	C450.982635,463.462769 441.892700,464.000336 436.035583,457.586304 
	C430.663605,451.703430 430.456238,441.146698 435.603271,435.576843 
	C441.892334,428.771027 450.785675,429.173553 460.564667,436.785614 
	C463.798309,433.829346 467.047150,430.859161 470.301331,427.884125 
	C461.971313,419.289124 454.522339,416.784973 441.737701,417.949463 
	C424.283875,419.539276 412.796600,435.164825 416.466278,452.324921 
	C420.688965,472.070984 443.181122,481.250183 463.249420,470.789886 
M619.502686,418.405243 
	C613.932434,418.405243 608.362183,418.405243 602.753052,418.405243 
	C602.753052,423.028687 602.753052,426.811768 602.753052,430.992981 
	C608.418640,430.992981 613.852966,430.992981 619.671265,430.992981 
	C619.671265,445.471985 619.671265,459.555389 619.671265,473.820007 
	C625.012695,473.820007 629.963745,473.820007 635.332886,473.820007 
	C635.332886,459.652374 635.332886,445.558044 635.332886,431.029602 
	C641.166260,431.029602 646.591980,431.029602 652.143799,431.029602 
	C652.143799,426.675751 652.143799,422.765045 652.143799,418.406525 
	C641.396729,418.406525 630.949158,418.406525 619.502686,418.405243 
M346.205475,464.183716 
	C346.562866,461.045990 344.253265,461.771637 342.582947,461.762756 
	C335.133301,461.723175 327.683319,461.745575 319.782532,461.745575 
	C319.782532,447.192566 319.782532,433.095337 319.782532,418.766907 
	C314.287048,418.766907 309.253693,418.766907 304.335266,418.766907 
	C304.335266,437.380280 304.335266,455.620453 304.335266,473.748627 
	C318.434479,473.748627 332.189545,473.748627 346.216675,473.748627 
	C346.216675,470.677185 346.216675,467.857941 346.205475,464.183716 
z"/>
<path fill="#8876A7" opacity="1.000000" stroke="none" 
	d="
M495.157349,128.859543 
	C496.153870,132.415588 497.321472,135.577362 497.782379,138.839020 
	C498.774292,145.858429 498.625427,145.879471 506.355408,144.742065 
	C506.572632,142.722687 506.424835,140.485733 507.098785,138.532257 
	C508.864319,133.414948 510.243164,127.932030 513.153442,123.499001 
	C517.027527,117.597839 524.800293,118.017738 529.345703,123.518219 
	C533.581787,128.644379 534.895691,134.799820 535.321594,141.194138 
	C535.513489,144.074173 536.414734,145.412872 539.611023,145.989471 
	C550.395386,147.934937 558.097351,156.281830 558.865051,167.284256 
	C559.489746,176.237122 559.164124,185.256485 559.252136,194.246445 
	C559.270691,196.146301 559.254883,198.046509 559.254883,199.946548 
	C559.675537,200.080109 560.096191,200.213654 560.516846,200.347198 
	C561.510803,199.166428 562.582703,198.042145 563.486755,196.796143 
	C572.679321,184.126572 581.840332,171.434067 591.019226,158.754547 
	C596.149597,151.667603 601.403320,150.742386 608.437134,155.743118 
	C612.916809,158.927979 617.334229,162.200562 621.780151,165.432846 
	C628.317810,170.185699 629.338562,176.001923 624.576233,182.620102 
	C603.864929,211.402512 583.055054,240.114227 562.448669,268.971436 
	C560.743347,271.359619 559.432373,274.632416 559.394470,277.513367 
	C559.078979,301.499115 559.114014,325.489380 559.025391,349.478241 
	C558.974976,363.118591 548.885254,373.877380 535.278015,373.926483 
	C488.450775,374.095459 441.622192,374.093292 394.794922,373.926208 
	C381.081085,373.877258 371.004395,363.170013 371.007568,349.501984 
	C371.021454,289.681061 371.045288,229.860168 371.066772,170.039261 
	C371.071198,157.736221 378.579224,148.352859 390.722137,146.001709 
	C393.878876,145.390488 394.233856,143.851105 394.890015,141.099380 
	C396.252197,135.387131 397.646515,129.339233 400.674164,124.448677 
	C405.108063,117.286430 413.380005,117.593964 417.820343,124.765816 
	C420.283081,128.743546 421.449554,133.569443 422.898468,138.109360 
	C423.585022,140.260590 423.563843,142.637695 423.879242,145.033691 
	C426.699036,145.033691 429.128326,145.033691 431.306213,145.033691 
	C432.265747,140.228485 432.776245,135.579025 434.204712,131.231186 
	C435.209900,128.171738 437.036041,125.120583 439.245575,122.770950 
	C444.346283,117.346649 452.154297,118.462990 455.797211,125.683990 
	C458.723358,131.484146 460.095276,138.068375 462.368561,144.945053 
	C463.678406,144.945053 466.076782,144.945053 468.110199,144.945053 
	C469.706146,139.057907 470.732666,133.135727 472.937744,127.690842 
	C475.548706,121.243828 479.855957,118.915543 485.202179,119.542038 
	C490.637299,120.178955 492.857880,124.298874 495.157349,128.859543 
M413.278015,168.886292 
	C411.269958,168.778076 408.001526,169.383575 407.467590,168.440643 
	C404.873993,163.860245 411.794586,165.830994 412.003326,162.325027 
	C408.396301,160.993927 405.450897,161.581543 403.910431,165.269104 
	C402.658295,168.266510 403.721405,171.004898 406.743042,172.333313 
	C410.167297,173.838730 412.910126,173.030594 414.150909,168.898361 
	C414.150909,168.898361 414.125305,168.682983 414.125305,168.682983 
	C414.125305,168.682983 414.046082,169.063095 413.278015,168.886292 
M492.499817,334.365631 
	C466.509949,334.370758 440.519653,334.442627 414.530884,334.277466 
	C411.944763,334.261078 407.166107,336.244049 407.076019,332.122803 
	C406.975769,327.538727 411.912689,329.409698 414.643188,329.391144 
	C437.968964,329.232849 461.296661,329.349182 484.622345,329.182983 
	C486.295441,329.171051 489.126434,327.868042 489.422394,326.671478 
	C490.724304,321.407837 491.292755,315.962799 492.215790,310.011353 
	C489.703583,310.011353 487.735291,310.011169 485.766968,310.011383 
	C461.606934,310.013916 437.446899,310.017578 413.286865,310.016357 
	C411.954559,310.016296 410.548187,310.230499 409.314178,309.871246 
	C408.380798,309.599548 407.667572,308.571747 406.856354,307.880371 
	C407.646240,306.987000 408.281891,305.648529 409.263458,305.308380 
	C410.611816,304.841217 412.222229,305.100037 413.720337,305.099762 
	C438.539429,305.095428 463.359070,305.018280 488.177002,305.188721 
	C491.893463,305.214233 493.469238,304.182404 494.033661,300.445587 
	C494.754364,295.674286 496.154785,291.005676 497.356873,285.890137 
	C496.032013,285.890137 494.252258,285.889954 492.472534,285.890167 
	C466.146362,285.893311 439.819855,285.956604 413.494720,285.792816 
	C411.235535,285.778778 407.010162,284.135040 407.052277,283.456268 
	C407.325287,279.052002 411.172974,280.705322 413.624878,280.695496 
	C441.782867,280.582947 469.941498,280.651947 498.099731,280.577362 
	C499.963837,280.572418 502.595947,280.429565 503.556854,279.265839 
	C507.952698,273.942291 511.879852,268.231812 516.693298,261.683624 
	C513.535339,261.683624 511.610809,261.683624 509.686249,261.683624 
	C477.694977,261.683929 445.703613,261.716431 413.712616,261.622009 
	C411.211914,261.614624 407.447388,263.107056 407.097351,258.829987 
	C407.043396,258.170593 411.236237,256.436462 413.470856,256.425964 
	C447.459930,256.266144 481.450287,256.241180 515.439270,256.405334 
	C519.232361,256.423645 521.543091,255.304871 523.606628,252.198120 
	C527.564697,246.239166 532.015137,240.608582 536.025818,234.682404 
	C537.159851,233.006699 538.018127,230.793579 538.074524,228.800644 
	C538.308411,220.537720 538.188721,212.264725 538.195190,203.995438 
	C538.198975,199.145737 538.195862,194.296021 538.195862,189.375092 
	C489.080811,189.375092 440.696106,189.375092 392.150421,189.375092 
	C392.060760,190.861191 391.931885,192.002487 391.931641,193.143814 
	C391.921417,242.130463 391.908173,291.117126 391.935699,340.103760 
	C391.940643,348.905701 396.288300,353.083221 405.331146,353.091736 
	C431.823364,353.116730 458.315613,353.107178 484.807831,353.107727 
	C498.470490,353.108002 512.133545,353.159943 525.795715,353.073334 
	C533.089905,353.027130 537.827026,349.267609 538.042542,342.641418 
	C538.413391,331.235168 538.245911,319.810089 538.192688,308.393433 
	C538.187500,307.284576 537.400391,306.179321 536.435547,303.661133 
	C530.079773,318.923157 514.744507,320.463684 503.358826,329.305542 
	C510.841187,329.305542 517.149780,329.134979 523.437134,329.424927 
	C525.017578,329.497803 526.529907,331.047211 528.073547,331.918060 
	C526.545044,332.730469 525.031006,334.213196 523.485718,334.246521 
	C513.494202,334.461884 503.495911,334.361145 492.499817,334.365631 
M375.995850,203.769974 
	C375.995270,251.039780 375.991486,298.309570 375.995850,345.579376 
	C375.997345,361.849030 383.201508,369.103485 399.334381,369.103821 
	C428.660522,369.104462 457.986633,369.102081 487.312775,369.100128 
	C502.808960,369.099091 518.305908,369.189636 533.801086,369.061371 
	C544.081787,368.976227 553.266479,362.741425 553.555725,353.538544 
	C554.305725,329.673340 553.807495,305.768921 553.807495,280.956207 
	C547.860657,288.514893 542.277344,294.702301 543.163086,304.816132 
	C544.176758,316.390533 543.498291,328.124023 543.353821,339.785919 
	C543.207092,351.634613 536.744507,358.001221 525.060791,358.007660 
	C485.070862,358.029785 445.080872,358.042511 405.091125,357.962799 
	C402.322235,357.957275 399.317047,357.713989 396.830811,356.636932 
	C388.872375,353.189392 386.785645,346.425079 386.804718,338.269928 
	C386.916992,290.282318 386.862885,242.294327 386.852081,194.306458 
	C386.851715,192.692322 386.715698,191.078201 386.634491,189.277313 
	C383.013672,189.277313 379.759338,189.277313 375.996033,189.277313 
	C375.996033,193.965302 375.996033,198.406433 375.995850,203.769974 
M423.224091,151.332626 
	C422.391479,157.128693 418.965607,162.174179 419.498352,168.539871 
	C419.956421,174.012970 413.621948,178.479385 408.094177,177.943085 
	C402.639496,177.413879 398.153717,172.388565 398.388763,167.070328 
	C398.651093,161.134659 403.162476,156.706787 409.084839,156.861664 
	C411.309479,156.919815 413.518433,157.578491 416.048859,158.017975 
	C416.706909,155.711014 417.325928,153.540863 418.032257,151.064713 
	C408.703094,151.064713 399.871490,150.517792 391.143127,151.232269 
	C383.738312,151.838394 377.062836,159.148102 376.278381,166.756485 
	C375.706665,172.301254 376.166565,177.952393 376.166565,183.763489 
	C435.614655,183.763489 494.638367,183.763489 553.607239,183.763489 
	C556.792297,162.735794 549.716187,151.138565 534.570435,151.499039 
	C533.670654,157.294815 532.782532,163.232437 531.819336,169.157852 
	C530.876892,174.956161 525.263000,178.864914 519.284729,177.958145 
	C513.777527,177.122833 509.822906,171.647491 510.656494,166.011902 
	C511.818237,158.157730 517.761230,155.340958 527.940979,158.137207 
	C528.682312,155.894104 529.429443,153.633560 530.397644,150.703949 
	C519.812256,150.703949 510.011780,150.673355 500.212372,150.760162 
	C499.399628,150.767365 498.029083,151.423203 497.874146,152.024231 
	C496.617706,156.898285 494.945435,161.794434 494.661926,166.755951 
	C494.337158,172.438965 490.499573,177.595795 484.826111,178.003876 
	C478.679138,178.446030 473.601562,174.207016 473.145203,168.252075 
	C472.683136,162.222519 477.113464,157.054413 483.149597,156.947449 
	C485.566315,156.904633 487.995697,157.577179 490.878784,157.989883 
	C491.359619,155.788040 491.856049,153.514786 492.472260,150.692978 
	C482.182587,150.692978 472.710449,150.636230 463.241089,150.772308 
	C462.182526,150.787521 460.415588,151.713303 460.208313,152.529449 
	C458.963287,157.432510 457.615906,162.388290 457.196411,167.401184 
	C456.735260,172.911713 452.409973,177.779022 446.678955,177.973343 
	C441.280365,178.156387 436.352203,173.719391 435.891785,168.261337 
	C435.404724,162.486633 439.129364,157.516083 444.770782,157.020004 
	C447.481171,156.781662 450.269958,157.434601 453.583527,157.734665 
	C454.087006,155.779282 454.646484,153.606445 455.361359,150.830154 
	C444.528473,150.830154 434.251678,150.830154 423.224091,151.332626 
M580.946289,216.433853 
	C587.389465,207.567474 593.832581,198.701080 600.475159,189.560318 
	C597.616577,187.499451 595.105408,185.689041 592.471863,183.790390 
	C591.623718,184.829453 590.960999,185.564102 590.383301,186.360458 
	C578.565430,202.651932 566.743591,218.940582 554.950562,235.250107 
	C541.108643,254.393280 527.303040,273.562744 513.455444,292.701843 
	C511.552612,295.331818 510.958527,297.926758 513.767090,300.162079 
	C516.713318,302.506866 519.332642,301.625885 521.455139,298.746429 
	C521.751465,298.344391 522.069275,297.958069 522.361633,297.553253 
	C541.752563,270.709106 561.141968,243.863815 580.946289,216.433853 
M580.211731,191.723190 
	C582.799255,188.100876 585.386780,184.478577 588.097412,180.683868 
	C586.396606,179.490738 585.090332,178.574341 583.584534,177.518005 
	C556.240173,215.362640 529.138794,252.870926 501.778259,290.737946 
	C506.920624,292.086090 509.458160,289.780365 511.748505,286.603149 
	C534.415588,255.158981 557.122009,223.743225 580.211731,191.723190 
M552.064697,274.548798 
	C570.983032,248.269791 589.901367,221.990784 608.970520,195.502350 
	C607.236206,194.370422 605.916626,193.509171 604.764709,192.757355 
	C604.212341,193.121796 604.031738,193.183228 603.940491,193.309357 
	C578.304565,228.742462 552.624146,264.143829 527.169495,299.706757 
	C525.627625,301.860901 525.881653,305.300446 525.300049,308.141876 
	C525.938171,308.369720 526.576294,308.597565 527.214478,308.825378 
	C535.363586,297.597229 543.512695,286.369049 552.064697,274.548798 
M620.663757,171.205276 
	C615.469238,167.366714 610.286377,163.512238 605.075562,159.695938 
	C602.249512,157.626205 599.209045,156.775024 596.688232,159.886154 
	C593.273010,164.101151 590.187134,168.583054 586.760986,173.219696 
	C595.319214,179.374786 603.468872,185.236008 611.934875,191.324783 
	C615.272583,186.770172 618.689148,182.685394 621.351624,178.157211 
	C622.265930,176.602219 621.295227,173.938919 620.663757,171.205276 
M505.797363,319.828430 
	C511.474487,317.635010 517.151611,315.441559 524.008972,312.792145 
	C521.438293,309.967407 520.051819,307.032379 518.393799,306.869995 
	C511.730499,306.217346 507.623322,303.205688 506.488403,296.696472 
	C504.255035,296.489014 502.313080,296.308655 499.885315,296.083130 
	C499.212189,300.076447 498.509613,303.953339 497.912384,307.846405 
	C496.551971,316.714539 496.572968,316.717773 505.797363,319.828430 
M551.306213,213.632172 
	C557.021912,205.916260 552.768921,197.402405 554.178467,189.216782 
	C550.138672,189.216782 547.022705,189.216782 543.680298,189.216782 
	C543.534973,190.528015 543.305542,191.650681 543.302429,192.773956 
	C543.274292,202.839905 543.286011,212.905960 543.286011,222.971985 
	C543.606140,223.085205 543.926208,223.198425 544.246338,223.311661 
	C546.460938,220.292358 548.675598,217.273071 551.306213,213.632172 
M483.560455,145.202789 
	C486.634399,145.202789 489.708344,145.202789 492.923859,145.202789 
	C493.259247,138.450867 492.177032,132.670227 488.597046,127.628654 
	C485.793976,123.681213 481.936890,123.541176 479.174133,127.343025 
	C475.367798,132.580933 474.058990,138.538864 474.848694,145.277313 
	C477.677948,145.277313 480.142517,145.277313 483.560455,145.202789 
M454.890045,135.994186 
	C453.816620,133.414749 453.063324,130.635437 451.603546,128.297226 
	C448.507080,123.337616 443.819427,123.158989 441.247406,128.376404 
	C438.797943,133.345184 437.738800,138.999359 435.876923,144.965851 
	C443.519043,144.965851 449.528961,144.965851 455.958710,144.965851 
	C455.629242,141.985382 455.342987,139.395859 454.890045,135.994186 
M516.192200,127.656181 
	C512.863892,132.970612 511.172180,138.625931 512.240051,144.858948 
	C518.441711,144.858948 524.280640,144.858948 531.619629,144.858948 
	C529.700989,138.778793 528.578674,133.278305 526.236450,128.358582 
	C523.994141,123.648781 521.027405,123.609947 516.192200,127.656181 
M406.546326,145.316193 
	C410.321228,145.316193 414.096100,145.316193 418.015717,145.316193 
	C418.727264,138.499054 417.372833,132.805801 413.920319,127.704353 
	C411.297577,123.828995 407.613068,123.459274 404.853027,126.949432 
	C400.683868,132.221527 399.243896,138.325241 400.180389,145.316376 
	C402.275543,145.316376 403.922760,145.316376 406.546326,145.316193 
M482.012054,165.796661 
	C483.631531,164.961884 485.251007,164.127090 487.326294,163.057358 
	C482.486938,161.108154 479.226440,162.171143 478.295746,165.674225 
	C477.364197,169.180435 479.123169,171.499161 482.277344,172.691208 
	C485.303955,173.835037 487.305908,172.418304 488.300964,168.652374 
	C486.663879,169.176666 485.097107,169.678436 483.077515,170.325226 
	C482.601379,169.044769 482.123596,167.759781 482.012054,165.796661 
M441.624725,164.302719 
	C439.711761,168.342606 441.218597,171.272720 445.035248,172.710190 
	C448.383484,173.971268 450.346954,171.906845 451.575714,169.543259 
	C448.896027,169.088303 446.672913,168.710876 444.449799,168.333420 
	C446.022095,166.377991 447.594421,164.422546 449.166748,162.467117 
	C449.057678,162.076584 448.948608,161.686050 448.839508,161.295517 
	C446.595703,162.078705 444.351868,162.861893 441.624725,164.302719 
M523.965271,163.223358 
	C520.546692,161.006958 517.463562,161.544693 516.042786,164.864548 
	C514.664978,168.083817 515.618042,170.819733 518.818848,172.346481 
	C522.178101,173.948807 524.511292,172.796982 526.349670,168.769241 
	C524.722290,169.086639 523.886353,169.491776 523.170410,169.338074 
	C521.753052,169.033691 520.401917,168.420547 519.023438,167.935043 
	C519.940247,166.862793 520.797485,165.729706 521.801331,164.746399 
	C522.241638,164.315155 522.981201,164.189529 523.965271,163.223358 
z"/>
<path fill="#D3C3EE" opacity="1.000000" stroke="none" 
	d="
M477.251160,441.999878 
	C477.263611,434.334198 477.272278,427.168488 477.301971,420.002899 
	C477.303223,419.696991 477.498779,419.391907 477.694855,418.821655 
	C484.825653,417.789246 491.144135,417.584198 496.109985,425.067444 
	C501.224976,432.775482 507.854401,439.478516 514.700745,447.674133 
	C514.700745,437.214142 514.700745,427.941376 514.700745,418.609619 
	C520.170410,418.609619 524.950073,418.609619 530.006592,418.609619 
	C530.006592,437.090057 530.006592,455.357758 530.006592,474.001740 
	C526.300903,474.001740 522.631897,474.289307 519.047241,473.865051 
	C517.540527,473.686768 515.938171,472.237946 514.847778,470.965302 
	C508.674713,463.760651 502.647522,456.431091 496.560211,449.152832 
	C495.646729,448.060638 494.678162,447.014465 493.087219,445.213806 
	C493.087219,455.197754 493.087219,464.250427 493.087219,473.653748 
	C487.772522,473.653748 482.862823,473.653748 477.251221,473.653748 
	C477.251221,463.368591 477.251221,452.934235 477.251160,441.999878 
z"/>
<path fill="#D3C3EF" opacity="1.000000" stroke="none" 
	d="
M292.974396,433.835846 
	C291.285095,437.871918 289.624634,441.490448 288.065002,444.889313 
	C290.091827,447.884705 293.585327,451.369476 295.025970,455.559998 
	C297.334015,462.273560 293.923615,468.613403 287.440033,471.500153 
	C284.751770,472.697052 281.743713,473.762329 278.857697,473.825836 
	C267.078308,474.085083 255.289902,473.933838 243.248291,473.933838 
	C243.248291,455.456329 243.248291,437.222717 243.248291,419.300201 
	C255.537827,419.300201 267.837250,418.622345 280.017517,419.534882 
	C288.350494,420.159180 292.407166,425.647278 292.974396,433.835846 
M276.023376,461.923950 
	C277.231812,459.992096 279.819550,457.526917 279.326904,456.252808 
	C278.579193,454.319000 275.819519,452.229370 273.688110,451.953186 
	C268.827301,451.323303 263.829071,451.754333 258.676819,451.754333 
	C258.676819,455.478088 258.676819,458.872711 258.676819,463.026794 
	C264.407745,462.711090 269.816925,462.413086 276.023376,461.923950 
M264.563416,429.846191 
	C262.636292,429.846191 260.709198,429.846191 258.769104,429.846191 
	C258.769104,433.694305 258.769104,436.904388 258.769104,440.193054 
	C263.426392,440.193054 267.727936,440.365112 272.007568,440.133179 
	C274.909149,439.975922 277.667267,438.383270 276.825684,435.216400 
	C276.286469,433.187500 273.940399,431.154877 271.899261,430.155945 
	C270.138977,429.294434 267.664642,429.891876 264.563416,429.846191 
z"/>
<path fill="#D4C4F0" opacity="1.000000" stroke="none" 
	d="
M353.475861,462.469574 
	C341.189636,441.135620 353.959290,418.355560 378.160339,417.749603 
	C401.276184,417.170868 416.053589,435.553436 408.762512,456.160736 
	C405.011871,466.761322 396.954407,472.992401 386.002716,474.607941 
	C373.309052,476.480347 361.818665,473.912292 353.475861,462.469574 
M379.509338,462.118347 
	C387.332977,461.435883 392.505676,457.359894 393.993530,450.705109 
	C395.651764,443.288208 393.024048,436.177399 387.363983,432.764618 
	C382.460938,429.808350 375.440125,430.053833 370.893372,433.340424 
	C365.784576,437.033386 363.471161,443.953583 365.070740,450.758087 
	C366.534546,456.985229 371.459961,461.083466 379.509338,462.118347 
z"/>
<path fill="#D4C4F0" opacity="1.000000" stroke="none" 
	d="
M595.536316,462.492310 
	C585.095154,477.903961 562.203491,477.807495 550.982971,470.019989 
	C540.553711,462.781708 536.805481,452.404938 539.228699,440.302063 
	C541.502869,428.943146 548.649414,421.488037 560.218689,418.711792 
	C578.580994,414.305420 594.535278,422.166351 599.173828,438.231415 
	C601.595459,446.618744 600.400940,454.712952 595.536316,462.492310 
M566.149170,461.913330 
	C567.478271,461.966644 568.810486,462.107483 570.135864,462.059052 
	C578.695190,461.746429 584.578125,454.825836 584.274231,445.475616 
	C583.992920,436.822296 577.764343,430.620178 569.398621,430.663208 
	C562.130737,430.700592 556.136841,435.635559 554.905518,442.595795 
	C553.319275,451.562347 556.968872,458.221771 566.149170,461.913330 
z"/>
<path fill="#D1C1EC" opacity="1.000000" stroke="none" 
	d="
M699.553589,418.406281 
	C700.664429,419.493378 701.765381,420.530823 701.875732,421.664642 
	C702.147705,424.459564 701.964844,427.298737 701.964844,430.594788 
	C692.708557,430.594788 683.642151,430.594788 674.252197,430.594788 
	C674.252197,433.799316 674.252197,436.550323 674.252197,439.782043 
	C682.087646,439.782043 690.165771,439.782043 698.399536,439.782043 
	C698.399536,443.977631 698.399536,447.696289 698.399536,451.837006 
	C690.188477,451.837006 682.283386,451.837006 674.158264,451.837006 
	C674.158264,455.333374 674.158264,458.409180 674.158264,461.896606 
	C683.654541,461.896606 693.061462,461.896606 702.728760,461.896606 
	C702.728760,466.025208 702.728760,469.753448 702.728760,473.749390 
	C688.069702,473.749390 673.490479,473.749390 658.528687,473.749390 
	C658.528687,455.612335 658.528687,437.400269 658.528687,418.400482 
	C671.952148,418.400482 685.522522,418.400482 699.553589,418.406281 
z"/>
<path fill="#D3C3EE" opacity="1.000000" stroke="none" 
	d="
M713.284668,458.024384 
	C720.164673,461.452271 727.047058,464.000458 734.587219,462.617371 
	C736.597046,462.248688 738.270874,460.047791 740.098938,458.688080 
	C738.555542,457.181671 737.266663,454.976135 735.419678,454.303680 
	C730.441223,452.491119 725.182800,451.466278 720.113708,449.879211 
	C713.990417,447.962067 709.437561,444.427643 708.892334,437.423798 
	C708.321472,430.091248 710.850159,424.146088 717.694641,421.027435 
	C729.589050,415.607758 741.425293,416.642883 753.613098,422.015564 
	C751.895081,426.205231 750.404602,429.840118 749.084595,433.059204 
	C743.735229,431.886230 738.689575,430.598816 733.571045,429.752869 
	C731.707520,429.444885 729.456543,429.756195 727.777954,430.585602 
	C726.366638,431.282928 724.855286,433.053467 724.663147,434.516357 
	C724.523621,435.578583 726.232178,437.480164 727.526550,438.014557 
	C730.568542,439.270477 733.855713,439.933197 737.044617,440.832550 
	C739.276611,441.462006 741.540894,441.993896 743.737610,442.728485 
	C751.860779,445.444794 755.416931,449.472534 755.750488,456.196442 
	C756.094238,463.125366 752.008362,470.061615 744.937134,472.574097 
	C732.254517,477.080383 719.899963,475.772461 707.644653,469.019989 
	C709.533142,465.154602 711.251404,461.637543 713.284668,458.024384 
z"/>
<path fill="#D3C4EF" opacity="1.000000" stroke="none" 
	d="
M462.931702,470.973999 
	C443.181122,481.250183 420.688965,472.070984 416.466278,452.324921 
	C412.796600,435.164825 424.283875,419.539276 441.737701,417.949463 
	C454.522339,416.784973 461.971313,419.289124 470.301331,427.884125 
	C467.047150,430.859161 463.798309,433.829346 460.564667,436.785614 
	C450.785675,429.173553 441.892334,428.771027 435.603271,435.576843 
	C430.456238,441.146698 430.663605,451.703430 436.035583,457.586304 
	C441.892700,464.000336 450.982635,463.462769 460.665161,456.017639 
	C463.729889,458.756653 466.822266,461.520325 470.548737,464.850739 
	C467.968140,466.950470 465.608795,468.870178 462.931702,470.973999 
z"/>
<path fill="#D3C4EF" opacity="1.000000" stroke="none" 
	d="
M620.002136,418.405884 
	C630.949158,418.406525 641.396729,418.406525 652.143799,418.406525 
	C652.143799,422.765045 652.143799,426.675751 652.143799,431.029602 
	C646.591980,431.029602 641.166260,431.029602 635.332886,431.029602 
	C635.332886,445.558044 635.332886,459.652374 635.332886,473.820007 
	C629.963745,473.820007 625.012695,473.820007 619.671265,473.820007 
	C619.671265,459.555389 619.671265,445.471985 619.671265,430.992981 
	C613.852966,430.992981 608.418640,430.992981 602.753052,430.992981 
	C602.753052,426.811768 602.753052,423.028687 602.753052,418.405243 
	C608.362183,418.405243 613.932434,418.405243 620.002136,418.405884 
z"/>
<path fill="#D4C4EF" opacity="1.000000" stroke="none" 
	d="
M346.211060,464.611206 
	C346.216675,467.857941 346.216675,470.677185 346.216675,473.748627 
	C332.189545,473.748627 318.434479,473.748627 304.335266,473.748627 
	C304.335266,455.620453 304.335266,437.380280 304.335266,418.766907 
	C309.253693,418.766907 314.287048,418.766907 319.782532,418.766907 
	C319.782532,433.095337 319.782532,447.192566 319.782532,461.745575 
	C327.683319,461.745575 335.133301,461.723175 342.582947,461.762756 
	C344.253265,461.771637 346.562866,461.045990 346.211060,464.611206 
z"/>
<path fill="#010101" opacity="1.000000" stroke="none" 
	d="
M492.999817,334.364868 
	C503.495911,334.361145 513.494202,334.461884 523.485718,334.246521 
	C525.031006,334.213196 526.545044,332.730469 528.073547,331.918030 
	C526.529907,331.047211 525.017578,329.497803 523.437134,329.424927 
	C517.149780,329.134979 510.841187,329.305542 503.358826,329.305542 
	C514.744507,320.463684 530.079773,318.923157 536.435547,303.661133 
	C537.400391,306.179321 538.187500,307.284576 538.192688,308.393433 
	C538.245911,319.810089 538.413391,331.235168 538.042542,342.641418 
	C537.827026,349.267609 533.089905,353.027130 525.795715,353.073334 
	C512.133545,353.159943 498.470490,353.108002 484.807831,353.107727 
	C458.315613,353.107178 431.823364,353.116730 405.331146,353.091736 
	C396.288300,353.083221 391.940643,348.905701 391.935699,340.103760 
	C391.908173,291.117126 391.921417,242.130463 391.931641,193.143814 
	C391.931885,192.002487 392.060760,190.861191 392.150421,189.375092 
	C440.696106,189.375092 489.080811,189.375092 538.195862,189.375092 
	C538.195862,194.296021 538.198975,199.145737 538.195190,203.995438 
	C538.188721,212.264725 538.308411,220.537720 538.074524,228.800644 
	C538.018127,230.793579 537.159851,233.006699 536.025818,234.682404 
	C532.015137,240.608582 527.564697,246.239166 523.606628,252.198120 
	C521.543091,255.304871 519.232361,256.423645 515.439270,256.405334 
	C481.450287,256.241180 447.459930,256.266144 413.470856,256.425964 
	C411.236237,256.436462 407.043396,258.170593 407.097351,258.829987 
	C407.447388,263.107056 411.211914,261.614624 413.712616,261.622009 
	C445.703613,261.716431 477.694977,261.683929 509.686249,261.683624 
	C511.610809,261.683624 513.535339,261.683624 516.693298,261.683624 
	C511.879852,268.231812 507.952698,273.942291 503.556854,279.265839 
	C502.595947,280.429565 499.963837,280.572418 498.099731,280.577362 
	C469.941498,280.651947 441.782867,280.582947 413.624878,280.695496 
	C411.172974,280.705322 407.325287,279.052002 407.052277,283.456268 
	C407.010162,284.135040 411.235535,285.778778 413.494720,285.792816 
	C439.819855,285.956604 466.146362,285.893311 492.472534,285.890167 
	C494.252258,285.889954 496.032013,285.890137 497.356873,285.890137 
	C496.154785,291.005676 494.754364,295.674286 494.033661,300.445587 
	C493.469238,304.182404 491.893463,305.214233 488.177002,305.188721 
	C463.359070,305.018280 438.539429,305.095428 413.720337,305.099762 
	C412.222229,305.100037 410.611816,304.841217 409.263458,305.308380 
	C408.281891,305.648529 407.646240,306.987000 406.856384,307.880371 
	C407.667572,308.571747 408.380798,309.599548 409.314178,309.871246 
	C410.548187,310.230499 411.954559,310.016296 413.286865,310.016357 
	C437.446899,310.017578 461.606934,310.013916 485.766968,310.011383 
	C487.735291,310.011169 489.703583,310.011353 492.215790,310.011353 
	C491.292755,315.962799 490.724304,321.407837 489.422394,326.671478 
	C489.126434,327.868042 486.295441,329.171051 484.622345,329.182983 
	C461.296661,329.349182 437.968964,329.232849 414.643188,329.391144 
	C411.912689,329.409698 406.975769,327.538727 407.076019,332.122803 
	C407.166107,336.244049 411.944763,334.261078 414.530884,334.277466 
	C440.519653,334.442627 466.509949,334.370758 492.999817,334.364868 
M428.500305,232.121323 
	C422.842804,232.119629 417.176147,231.939789 411.533539,232.228745 
	C409.917480,232.311523 408.370911,233.750916 406.792480,234.568253 
	C408.278442,235.384216 409.696503,236.393692 411.274475,236.947556 
	C412.311829,237.311661 413.579956,237.019501 414.744720,237.019440 
	C444.195190,237.017883 473.645660,237.016113 503.096130,237.014282 
	C510.416107,237.013824 517.737732,237.087234 525.054138,236.925644 
	C526.056396,236.903488 527.032776,235.710541 528.021118,235.059631 
	C527.124756,234.103897 526.390259,232.776932 525.286926,232.295761 
	C524.160400,231.804474 522.671753,232.122589 521.341614,232.122452 
	C490.727814,232.119263 460.113983,232.121002 428.500305,232.121323 
M499.500824,207.891129 
	C470.527649,207.922394 441.554169,207.910034 412.581848,208.083542 
	C410.659607,208.095047 408.745819,209.520432 406.828094,210.288193 
	C408.687164,211.153320 410.522461,212.699219 412.409485,212.765213 
	C420.392578,213.044373 428.391052,212.882614 436.383911,212.883331 
	C465.356506,212.885956 494.329285,212.927444 523.301208,212.788513 
	C524.894836,212.780853 526.481323,211.274246 528.071106,210.465347 
	C526.540100,209.638458 525.032715,208.152084 523.474121,208.096298 
	C515.823914,207.822617 508.160065,207.929276 499.500824,207.891129 
z"/>
<path fill="#020103" opacity="1.000000" stroke="none" 
	d="
M375.995941,203.308777 
	C375.996033,198.406433 375.996033,193.965302 375.996033,189.277313 
	C379.759338,189.277313 383.013672,189.277313 386.634491,189.277313 
	C386.715698,191.078201 386.851715,192.692322 386.852081,194.306458 
	C386.862885,242.294327 386.916992,290.282318 386.804718,338.269928 
	C386.785645,346.425079 388.872375,353.189392 396.830811,356.636932 
	C399.317047,357.713989 402.322235,357.957275 405.091125,357.962799 
	C445.080872,358.042511 485.070862,358.029785 525.060791,358.007660 
	C536.744507,358.001221 543.207092,351.634613 543.353821,339.785919 
	C543.498291,328.124023 544.176758,316.390533 543.163086,304.816132 
	C542.277344,294.702301 547.860657,288.514893 553.807495,280.956207 
	C553.807495,305.768921 554.305725,329.673340 553.555725,353.538544 
	C553.266479,362.741425 544.081787,368.976227 533.801086,369.061371 
	C518.305908,369.189636 502.808960,369.099091 487.312775,369.100128 
	C457.986633,369.102081 428.660522,369.104462 399.334381,369.103821 
	C383.201508,369.103485 375.997345,361.849030 375.995850,345.579376 
	C375.991486,298.309570 375.995270,251.039780 375.995941,203.308777 
z"/>
<path fill="#020103" opacity="1.000000" stroke="none" 
	d="
M423.599487,151.081390 
	C434.251678,150.830154 444.528473,150.830154 455.361359,150.830154 
	C454.646484,153.606445 454.087006,155.779282 453.583527,157.734665 
	C450.269958,157.434601 447.481171,156.781662 444.770782,157.020004 
	C439.129364,157.516083 435.404724,162.486633 435.891785,168.261337 
	C436.352203,173.719391 441.280365,178.156387 446.678955,177.973343 
	C452.409973,177.779022 456.735260,172.911713 457.196411,167.401184 
	C457.615906,162.388290 458.963287,157.432510 460.208313,152.529449 
	C460.415588,151.713303 462.182526,150.787521 463.241089,150.772308 
	C472.710449,150.636230 482.182587,150.692978 492.472260,150.692978 
	C491.856049,153.514786 491.359619,155.788040 490.878784,157.989883 
	C487.995697,157.577179 485.566315,156.904633 483.149597,156.947449 
	C477.113464,157.054413 472.683136,162.222519 473.145203,168.252075 
	C473.601562,174.207016 478.679138,178.446030 484.826111,178.003876 
	C490.499573,177.595795 494.337158,172.438965 494.661926,166.755951 
	C494.945435,161.794434 496.617706,156.898285 497.874146,152.024231 
	C498.029083,151.423203 499.399628,150.767365 500.212372,150.760162 
	C510.011780,150.673355 519.812256,150.703949 530.397644,150.703949 
	C529.429443,153.633560 528.682312,155.894104 527.940979,158.137207 
	C517.761230,155.340958 511.818237,158.157730 510.656494,166.011902 
	C509.822906,171.647491 513.777527,177.122833 519.284729,177.958145 
	C525.263000,178.864914 530.876892,174.956161 531.819336,169.157852 
	C532.782532,163.232437 533.670654,157.294815 534.570435,151.499039 
	C549.716187,151.138565 556.792297,162.735794 553.607239,183.763489 
	C494.638367,183.763489 435.614655,183.763489 376.166565,183.763489 
	C376.166565,177.952393 375.706665,172.301254 376.278381,166.756485 
	C377.062836,159.148102 383.738312,151.838394 391.143127,151.232269 
	C399.871490,150.517792 408.703094,151.064713 418.032257,151.064713 
	C417.325928,153.540863 416.706909,155.711014 416.048859,158.017975 
	C413.518433,157.578491 411.309479,156.919815 409.084839,156.861664 
	C403.162476,156.706787 398.651093,161.134659 398.388763,167.070328 
	C398.153717,172.388565 402.639496,177.413879 408.094177,177.943085 
	C413.621948,178.479385 419.956421,174.012970 419.498352,168.539871 
	C418.965607,162.174179 422.391479,157.128693 423.599487,151.081390 
z"/>
<path fill="#030205" opacity="1.000000" stroke="none" 
	d="
M580.738892,216.726227 
	C561.141968,243.863815 541.752563,270.709106 522.361633,297.553253 
	C522.069275,297.958069 521.751465,298.344391 521.455139,298.746429 
	C519.332642,301.625885 516.713318,302.506866 513.767090,300.162079 
	C510.958527,297.926758 511.552612,295.331818 513.455444,292.701843 
	C527.303040,273.562744 541.108643,254.393280 554.950562,235.250107 
	C566.743591,218.940582 578.565430,202.651932 590.383301,186.360458 
	C590.960999,185.564102 591.623718,184.829453 592.471863,183.790390 
	C595.105408,185.689041 597.616577,187.499451 600.475159,189.560318 
	C593.832581,198.701080 587.389465,207.567474 580.738892,216.726227 
z"/>
<path fill="#06040A" opacity="1.000000" stroke="none" 
	d="
M580.014526,192.021301 
	C557.122009,223.743225 534.415588,255.158981 511.748505,286.603149 
	C509.458160,289.780365 506.920624,292.086090 501.778259,290.737946 
	C529.138794,252.870926 556.240173,215.362640 583.584534,177.518005 
	C585.090332,178.574341 586.396606,179.490738 588.097412,180.683868 
	C585.386780,184.478577 582.799255,188.100876 580.014526,192.021301 
z"/>
<path fill="#060409" opacity="1.000000" stroke="none" 
	d="
M551.863281,274.844849 
	C543.512695,286.369049 535.363586,297.597229 527.214478,308.825378 
	C526.576294,308.597565 525.938171,308.369720 525.300049,308.141876 
	C525.881653,305.300446 525.627625,301.860901 527.169495,299.706757 
	C552.624146,264.143829 578.304565,228.742462 603.940491,193.309357 
	C604.031738,193.183228 604.212341,193.121796 604.764709,192.757355 
	C605.916626,193.509171 607.236206,194.370422 608.970520,195.502350 
	C589.901367,221.990784 570.983032,248.269791 551.863281,274.844849 
z"/>
<path fill="#030204" opacity="1.000000" stroke="none" 
	d="
M620.924683,171.493622 
	C621.295227,173.938919 622.265930,176.602219 621.351624,178.157211 
	C618.689148,182.685394 615.272583,186.770172 611.934875,191.324783 
	C603.468872,185.236008 595.319214,179.374786 586.760986,173.219696 
	C590.187134,168.583054 593.273010,164.101151 596.688232,159.886154 
	C599.209045,156.775024 602.249512,157.626205 605.075562,159.695938 
	C610.286377,163.512238 615.469238,167.366714 620.924683,171.493622 
z"/>
<path fill="#030205" opacity="1.000000" stroke="none" 
	d="
M505.423370,319.679077 
	C496.572968,316.717773 496.551971,316.714539 497.912384,307.846405 
	C498.509613,303.953339 499.212189,300.076447 499.885315,296.083130 
	C502.313080,296.308655 504.255035,296.489014 506.488403,296.696472 
	C507.623322,303.205688 511.730499,306.217346 518.393799,306.869995 
	C520.051819,307.032379 521.438293,309.967407 524.008972,312.792145 
	C517.151611,315.441559 511.474487,317.635010 505.423370,319.679077 
z"/>
<path fill="#07050B" opacity="1.000000" stroke="none" 
	d="
M551.098267,213.942978 
	C548.675598,217.273071 546.460938,220.292358 544.246338,223.311661 
	C543.926208,223.198425 543.606140,223.085205 543.286011,222.971985 
	C543.286011,212.905960 543.274292,202.839905 543.302429,192.773956 
	C543.305542,191.650681 543.534973,190.528015 543.680298,189.216782 
	C547.022705,189.216782 550.138672,189.216782 554.178467,189.216782 
	C552.768921,197.402405 557.021912,205.916260 551.098267,213.942978 
z"/>
<path fill="#030205" opacity="1.000000" stroke="none" 
	d="
M483.083801,145.240051 
	C480.142517,145.277313 477.677948,145.277313 474.848694,145.277313 
	C474.058990,138.538864 475.367798,132.580933 479.174133,127.343025 
	C481.936890,123.541176 485.793976,123.681213 488.597046,127.628654 
	C492.177032,132.670227 493.259247,138.450867 492.923859,145.202789 
	C489.708344,145.202789 486.634399,145.202789 483.083801,145.240051 
z"/>
<path fill="#030204" opacity="1.000000" stroke="none" 
	d="
M454.973389,136.400269 
	C455.342987,139.395859 455.629242,141.985382 455.958710,144.965851 
	C449.528961,144.965851 443.519043,144.965851 435.876923,144.965851 
	C437.738800,138.999359 438.797943,133.345184 441.247406,128.376404 
	C443.819427,123.158989 448.507080,123.337616 451.603546,128.297226 
	C453.063324,130.635437 453.816620,133.414749 454.973389,136.400269 
z"/>
<path fill="#030204" opacity="1.000000" stroke="none" 
	d="
M516.438965,127.358643 
	C521.027405,123.609947 523.994141,123.648781 526.236450,128.358582 
	C528.578674,133.278305 529.700989,138.778793 531.619629,144.858948 
	C524.280640,144.858948 518.441711,144.858948 512.240051,144.858948 
	C511.172180,138.625931 512.863892,132.970612 516.438965,127.358643 
z"/>
<path fill="#030204" opacity="1.000000" stroke="none" 
	d="
M406.058136,145.316284 
	C403.922760,145.316376 402.275543,145.316376 400.180389,145.316376 
	C399.243896,138.325241 400.683868,132.221527 404.853027,126.949432 
	C407.613068,123.459274 411.297577,123.828995 413.920319,127.704353 
	C417.372833,132.805801 418.727264,138.499054 418.015717,145.316193 
	C414.096100,145.316193 410.321228,145.316193 406.058136,145.316284 
z"/>
<path fill="#0E0915" opacity="1.000000" stroke="none" 
	d="
M481.828918,166.135742 
	C482.123596,167.759781 482.601379,169.044769 483.077515,170.325226 
	C485.097107,169.678436 486.663879,169.176666 488.300964,168.652374 
	C487.305908,172.418304 485.303955,173.835037 482.277344,172.691208 
	C479.123169,171.499161 477.364197,169.180435 478.295746,165.674225 
	C479.226440,162.171143 482.486938,161.108154 487.326294,163.057358 
	C485.251007,164.127090 483.631531,164.961884 481.828918,166.135742 
z"/>
<path fill="#0E0915" opacity="1.000000" stroke="none" 
	d="
M413.978607,169.003723 
	C412.910126,173.030594 410.167297,173.838730 406.743042,172.333313 
	C403.721405,171.004898 402.658295,168.266510 403.910431,165.269104 
	C405.450897,161.581543 408.396301,160.993927 412.003326,162.325027 
	C411.794586,165.830994 404.873993,163.860245 407.467590,168.440643 
	C408.001526,169.383575 411.269958,168.778076 413.647217,168.957245 
	C414.016388,169.028198 413.978607,169.003723 413.978607,169.003723 
z"/>
<path fill="#0E0915" opacity="1.000000" stroke="none" 
	d="
M441.866394,163.973907 
	C444.351868,162.861893 446.595703,162.078705 448.839508,161.295517 
	C448.948608,161.686050 449.057678,162.076584 449.166748,162.467117 
	C447.594421,164.422546 446.022095,166.377991 444.449799,168.333435 
	C446.672913,168.710876 448.896027,169.088303 451.575714,169.543259 
	C450.346954,171.906845 448.383484,173.971268 445.035248,172.710190 
	C441.218597,171.272720 439.711761,168.342606 441.866394,163.973907 
z"/>
<path fill="#0E0915" opacity="1.000000" stroke="none" 
	d="
M523.775085,163.574234 
	C522.981201,164.189529 522.241638,164.315155 521.801331,164.746399 
	C520.797485,165.729706 519.940247,166.862793 519.023438,167.935043 
	C520.401917,168.420547 521.753052,169.033691 523.170410,169.338074 
	C523.886353,169.491776 524.722290,169.086639 526.349670,168.769241 
	C524.511292,172.796982 522.178101,173.948807 518.818848,172.346481 
	C515.618042,170.819733 514.664978,168.083817 516.042786,164.864548 
	C517.463562,161.544693 520.546692,161.006958 523.775085,163.574234 
z"/>
<path fill="#0E0915" opacity="1.000000" stroke="none" 
	d="
M414.031250,169.045654 
	C414.046082,169.063095 414.125305,168.682983 414.125305,168.682983 
	C414.125305,168.682983 414.150909,168.898361 414.064758,168.951050 
	C413.978607,169.003723 414.016388,169.028198 414.031250,169.045654 
z"/>
<path fill="#0B090D" opacity="1.000000" stroke="none" 
	d="
M275.624756,462.019531 
	C269.816925,462.413086 264.407745,462.711090 258.676819,463.026794 
	C258.676819,458.872711 258.676819,455.478088 258.676819,451.754333 
	C263.829071,451.754333 268.827301,451.323303 273.688110,451.953186 
	C275.819519,452.229370 278.579193,454.319000 279.326904,456.252808 
	C279.819550,457.526917 277.231812,459.992096 275.624756,462.019531 
z"/>
<path fill="#07050B" opacity="1.000000" stroke="none" 
	d="
M265.034729,429.845215 
	C267.664642,429.891876 270.138977,429.294434 271.899261,430.155945 
	C273.940399,431.154877 276.286469,433.187500 276.825684,435.216400 
	C277.667267,438.383270 274.909149,439.975922 272.007568,440.133179 
	C267.727936,440.365112 263.426392,440.193054 258.769104,440.193054 
	C258.769104,436.904388 258.769104,433.694305 258.769104,429.846191 
	C260.709198,429.846191 262.636292,429.846191 265.034729,429.845215 
z"/>
<path fill="#020203" opacity="1.000000" stroke="none" 
	d="
M379.088104,462.094666 
	C371.459961,461.083466 366.534546,456.985229 365.070740,450.758087 
	C363.471161,443.953583 365.784576,437.033386 370.893372,433.340424 
	C375.440125,430.053833 382.460938,429.808350 387.363983,432.764618 
	C393.024048,436.177399 395.651764,443.288208 393.993530,450.705109 
	C392.505676,457.359894 387.332977,461.435883 379.088104,462.094666 
z"/>
<path fill="#020203" opacity="1.000000" stroke="none" 
	d="
M565.755981,461.795227 
	C556.968872,458.221771 553.319275,451.562347 554.905518,442.595795 
	C556.136841,435.635559 562.130737,430.700592 569.398621,430.663208 
	C577.764343,430.620178 583.992920,436.822296 584.274231,445.475616 
	C584.578125,454.825836 578.695190,461.746429 570.135864,462.059052 
	C568.810486,462.107483 567.478271,461.966644 565.755981,461.795227 
z"/>
<path fill="#8A78A8" opacity="1.000000" stroke="none" 
	d="
M429.000244,232.121582 
	C460.113983,232.121002 490.727814,232.119263 521.341614,232.122452 
	C522.671753,232.122589 524.160400,231.804474 525.286926,232.295761 
	C526.390259,232.776932 527.124756,234.103897 528.021118,235.059631 
	C527.032776,235.710541 526.056396,236.903488 525.054138,236.925644 
	C517.737732,237.087234 510.416107,237.013824 503.096130,237.014282 
	C473.645660,237.016113 444.195190,237.017883 414.744720,237.019440 
	C413.579956,237.019501 412.311829,237.311661 411.274475,236.947556 
	C409.696503,236.393692 408.278442,235.384216 406.792480,234.568237 
	C408.370911,233.750916 409.917480,232.311523 411.533539,232.228745 
	C417.176147,231.939789 422.842804,232.119629 429.000244,232.121582 
z"/>
<path fill="#8978A6" opacity="1.000000" stroke="none" 
	d="
M500.000946,207.896362 
	C508.160065,207.929276 515.823914,207.822617 523.474121,208.096298 
	C525.032715,208.152084 526.540100,209.638458 528.071106,210.465347 
	C526.481323,211.274246 524.894836,212.780853 523.301208,212.788513 
	C494.329285,212.927444 465.356506,212.885956 436.383911,212.883331 
	C428.391052,212.882614 420.392578,213.044373 412.409485,212.765213 
	C410.522461,212.699219 408.687164,211.153320 406.828094,210.288193 
	C408.745819,209.520432 410.659607,208.095047 412.581848,208.083542 
	C441.554169,207.910034 470.527649,207.922394 500.000946,207.896362 
z"/>
</svg>